%TF.GenerationSoftware,KiCad,Pcbnew,9.0.6-9.0.6~ubuntu22.04.1*%
%TF.CreationDate,2026-06-23T21:31:26-04:00*%
%TF.ProjectId,OBD1_Scanner,4f424431-5f53-4636-916e-6e65722e6b69,rev?*%
%TF.SameCoordinates,Original*%
%TF.FileFunction,Legend,Bot*%
%TF.FilePolarity,Positive*%
%FSLAX46Y46*%
G04 Gerber Fmt 4.6, Leading zero omitted, Abs format (unit mm)*
G04 Created by KiCad (PCBNEW 9.0.6-9.0.6~ubuntu22.04.1) date 2026-06-23 21:31:26*
%MOMM*%
%LPD*%
G01*
G04 APERTURE LIST*
G04 Aperture macros list*
%AMRoundRect*
0 Rectangle with rounded corners*
0 $1 Rounding radius*
0 $2 $3 $4 $5 $6 $7 $8 $9 X,Y pos of 4 corners*
0 Add a 4 corners polygon primitive as box body*
4,1,4,$2,$3,$4,$5,$6,$7,$8,$9,$2,$3,0*
0 Add four circle primitives for the rounded corners*
1,1,$1+$1,$2,$3*
1,1,$1+$1,$4,$5*
1,1,$1+$1,$6,$7*
1,1,$1+$1,$8,$9*
0 Add four rect primitives between the rounded corners*
20,1,$1+$1,$2,$3,$4,$5,0*
20,1,$1+$1,$4,$5,$6,$7,0*
20,1,$1+$1,$6,$7,$8,$9,0*
20,1,$1+$1,$8,$9,$2,$3,0*%
G04 Aperture macros list end*
%ADD10C,0.150000*%
%ADD11C,2.800000*%
%ADD12C,3.600000*%
%ADD13C,5.700000*%
%ADD14C,3.000000*%
%ADD15RoundRect,0.250001X-1.099999X-1.599999X1.099999X-1.599999X1.099999X1.599999X-1.099999X1.599999X0*%
%ADD16O,2.700000X3.700000*%
%ADD17C,0.650000*%
%ADD18O,1.000000X2.100000*%
%ADD19O,1.000000X1.800000*%
G04 APERTURE END LIST*
D10*
X227310839Y-85012256D02*
X227167982Y-85059875D01*
X227167982Y-85059875D02*
X226929887Y-85059875D01*
X226929887Y-85059875D02*
X226834649Y-85012256D01*
X226834649Y-85012256D02*
X226787030Y-84964636D01*
X226787030Y-84964636D02*
X226739411Y-84869398D01*
X226739411Y-84869398D02*
X226739411Y-84774160D01*
X226739411Y-84774160D02*
X226787030Y-84678922D01*
X226787030Y-84678922D02*
X226834649Y-84631303D01*
X226834649Y-84631303D02*
X226929887Y-84583684D01*
X226929887Y-84583684D02*
X227120363Y-84536065D01*
X227120363Y-84536065D02*
X227215601Y-84488446D01*
X227215601Y-84488446D02*
X227263220Y-84440827D01*
X227263220Y-84440827D02*
X227310839Y-84345589D01*
X227310839Y-84345589D02*
X227310839Y-84250351D01*
X227310839Y-84250351D02*
X227263220Y-84155113D01*
X227263220Y-84155113D02*
X227215601Y-84107494D01*
X227215601Y-84107494D02*
X227120363Y-84059875D01*
X227120363Y-84059875D02*
X226882268Y-84059875D01*
X226882268Y-84059875D02*
X226739411Y-84107494D01*
X226310839Y-84059875D02*
X226310839Y-84869398D01*
X226310839Y-84869398D02*
X226263220Y-84964636D01*
X226263220Y-84964636D02*
X226215601Y-85012256D01*
X226215601Y-85012256D02*
X226120363Y-85059875D01*
X226120363Y-85059875D02*
X225929887Y-85059875D01*
X225929887Y-85059875D02*
X225834649Y-85012256D01*
X225834649Y-85012256D02*
X225787030Y-84964636D01*
X225787030Y-84964636D02*
X225739411Y-84869398D01*
X225739411Y-84869398D02*
X225739411Y-84059875D01*
X224929887Y-84536065D02*
X224787030Y-84583684D01*
X224787030Y-84583684D02*
X224739411Y-84631303D01*
X224739411Y-84631303D02*
X224691792Y-84726541D01*
X224691792Y-84726541D02*
X224691792Y-84869398D01*
X224691792Y-84869398D02*
X224739411Y-84964636D01*
X224739411Y-84964636D02*
X224787030Y-85012256D01*
X224787030Y-85012256D02*
X224882268Y-85059875D01*
X224882268Y-85059875D02*
X225263220Y-85059875D01*
X225263220Y-85059875D02*
X225263220Y-84059875D01*
X225263220Y-84059875D02*
X224929887Y-84059875D01*
X224929887Y-84059875D02*
X224834649Y-84107494D01*
X224834649Y-84107494D02*
X224787030Y-84155113D01*
X224787030Y-84155113D02*
X224739411Y-84250351D01*
X224739411Y-84250351D02*
X224739411Y-84345589D01*
X224739411Y-84345589D02*
X224787030Y-84440827D01*
X224787030Y-84440827D02*
X224834649Y-84488446D01*
X224834649Y-84488446D02*
X224929887Y-84536065D01*
X224929887Y-84536065D02*
X225263220Y-84536065D01*
X224263220Y-84536065D02*
X223929887Y-84536065D01*
X223787030Y-85059875D02*
X224263220Y-85059875D01*
X224263220Y-85059875D02*
X224263220Y-84059875D01*
X224263220Y-84059875D02*
X223787030Y-84059875D01*
X223406077Y-85012256D02*
X223263220Y-85059875D01*
X223263220Y-85059875D02*
X223025125Y-85059875D01*
X223025125Y-85059875D02*
X222929887Y-85012256D01*
X222929887Y-85012256D02*
X222882268Y-84964636D01*
X222882268Y-84964636D02*
X222834649Y-84869398D01*
X222834649Y-84869398D02*
X222834649Y-84774160D01*
X222834649Y-84774160D02*
X222882268Y-84678922D01*
X222882268Y-84678922D02*
X222929887Y-84631303D01*
X222929887Y-84631303D02*
X223025125Y-84583684D01*
X223025125Y-84583684D02*
X223215601Y-84536065D01*
X223215601Y-84536065D02*
X223310839Y-84488446D01*
X223310839Y-84488446D02*
X223358458Y-84440827D01*
X223358458Y-84440827D02*
X223406077Y-84345589D01*
X223406077Y-84345589D02*
X223406077Y-84250351D01*
X223406077Y-84250351D02*
X223358458Y-84155113D01*
X223358458Y-84155113D02*
X223310839Y-84107494D01*
X223310839Y-84107494D02*
X223215601Y-84059875D01*
X223215601Y-84059875D02*
X222977506Y-84059875D01*
X222977506Y-84059875D02*
X222834649Y-84107494D01*
X222406077Y-85059875D02*
X222406077Y-84059875D01*
X222406077Y-84059875D02*
X222025125Y-84059875D01*
X222025125Y-84059875D02*
X221929887Y-84107494D01*
X221929887Y-84107494D02*
X221882268Y-84155113D01*
X221882268Y-84155113D02*
X221834649Y-84250351D01*
X221834649Y-84250351D02*
X221834649Y-84393208D01*
X221834649Y-84393208D02*
X221882268Y-84488446D01*
X221882268Y-84488446D02*
X221929887Y-84536065D01*
X221929887Y-84536065D02*
X222025125Y-84583684D01*
X222025125Y-84583684D02*
X222406077Y-84583684D01*
X221215601Y-84583684D02*
X221215601Y-85059875D01*
X221548934Y-84059875D02*
X221215601Y-84583684D01*
X221215601Y-84583684D02*
X220882268Y-84059875D01*
X219787029Y-85059875D02*
X219787029Y-84059875D01*
X219787029Y-84059875D02*
X219548934Y-84059875D01*
X219548934Y-84059875D02*
X219406077Y-84107494D01*
X219406077Y-84107494D02*
X219310839Y-84202732D01*
X219310839Y-84202732D02*
X219263220Y-84297970D01*
X219263220Y-84297970D02*
X219215601Y-84488446D01*
X219215601Y-84488446D02*
X219215601Y-84631303D01*
X219215601Y-84631303D02*
X219263220Y-84821779D01*
X219263220Y-84821779D02*
X219310839Y-84917017D01*
X219310839Y-84917017D02*
X219406077Y-85012256D01*
X219406077Y-85012256D02*
X219548934Y-85059875D01*
X219548934Y-85059875D02*
X219787029Y-85059875D01*
X218787029Y-85059875D02*
X218787029Y-84059875D01*
X218358458Y-84774160D02*
X217882268Y-84774160D01*
X218453696Y-85059875D02*
X218120363Y-84059875D01*
X218120363Y-84059875D02*
X217787030Y-85059875D01*
X216929887Y-84107494D02*
X217025125Y-84059875D01*
X217025125Y-84059875D02*
X217167982Y-84059875D01*
X217167982Y-84059875D02*
X217310839Y-84107494D01*
X217310839Y-84107494D02*
X217406077Y-84202732D01*
X217406077Y-84202732D02*
X217453696Y-84297970D01*
X217453696Y-84297970D02*
X217501315Y-84488446D01*
X217501315Y-84488446D02*
X217501315Y-84631303D01*
X217501315Y-84631303D02*
X217453696Y-84821779D01*
X217453696Y-84821779D02*
X217406077Y-84917017D01*
X217406077Y-84917017D02*
X217310839Y-85012256D01*
X217310839Y-85012256D02*
X217167982Y-85059875D01*
X217167982Y-85059875D02*
X217072744Y-85059875D01*
X217072744Y-85059875D02*
X216929887Y-85012256D01*
X216929887Y-85012256D02*
X216882268Y-84964636D01*
X216882268Y-84964636D02*
X216882268Y-84631303D01*
X216882268Y-84631303D02*
X217072744Y-84631303D01*
X215358458Y-84536065D02*
X215215601Y-84583684D01*
X215215601Y-84583684D02*
X215167982Y-84631303D01*
X215167982Y-84631303D02*
X215120363Y-84726541D01*
X215120363Y-84726541D02*
X215120363Y-84869398D01*
X215120363Y-84869398D02*
X215167982Y-84964636D01*
X215167982Y-84964636D02*
X215215601Y-85012256D01*
X215215601Y-85012256D02*
X215310839Y-85059875D01*
X215310839Y-85059875D02*
X215691791Y-85059875D01*
X215691791Y-85059875D02*
X215691791Y-84059875D01*
X215691791Y-84059875D02*
X215358458Y-84059875D01*
X215358458Y-84059875D02*
X215263220Y-84107494D01*
X215263220Y-84107494D02*
X215215601Y-84155113D01*
X215215601Y-84155113D02*
X215167982Y-84250351D01*
X215167982Y-84250351D02*
X215167982Y-84345589D01*
X215167982Y-84345589D02*
X215215601Y-84440827D01*
X215215601Y-84440827D02*
X215263220Y-84488446D01*
X215263220Y-84488446D02*
X215358458Y-84536065D01*
X215358458Y-84536065D02*
X215691791Y-84536065D01*
X214501315Y-84059875D02*
X214310839Y-84059875D01*
X214310839Y-84059875D02*
X214215601Y-84107494D01*
X214215601Y-84107494D02*
X214120363Y-84202732D01*
X214120363Y-84202732D02*
X214072744Y-84393208D01*
X214072744Y-84393208D02*
X214072744Y-84726541D01*
X214072744Y-84726541D02*
X214120363Y-84917017D01*
X214120363Y-84917017D02*
X214215601Y-85012256D01*
X214215601Y-85012256D02*
X214310839Y-85059875D01*
X214310839Y-85059875D02*
X214501315Y-85059875D01*
X214501315Y-85059875D02*
X214596553Y-85012256D01*
X214596553Y-85012256D02*
X214691791Y-84917017D01*
X214691791Y-84917017D02*
X214739410Y-84726541D01*
X214739410Y-84726541D02*
X214739410Y-84393208D01*
X214739410Y-84393208D02*
X214691791Y-84202732D01*
X214691791Y-84202732D02*
X214596553Y-84107494D01*
X214596553Y-84107494D02*
X214501315Y-84059875D01*
X213691791Y-84774160D02*
X213215601Y-84774160D01*
X213787029Y-85059875D02*
X213453696Y-84059875D01*
X213453696Y-84059875D02*
X213120363Y-85059875D01*
X212215601Y-85059875D02*
X212548934Y-84583684D01*
X212787029Y-85059875D02*
X212787029Y-84059875D01*
X212787029Y-84059875D02*
X212406077Y-84059875D01*
X212406077Y-84059875D02*
X212310839Y-84107494D01*
X212310839Y-84107494D02*
X212263220Y-84155113D01*
X212263220Y-84155113D02*
X212215601Y-84250351D01*
X212215601Y-84250351D02*
X212215601Y-84393208D01*
X212215601Y-84393208D02*
X212263220Y-84488446D01*
X212263220Y-84488446D02*
X212310839Y-84536065D01*
X212310839Y-84536065D02*
X212406077Y-84583684D01*
X212406077Y-84583684D02*
X212787029Y-84583684D01*
X211787029Y-85059875D02*
X211787029Y-84059875D01*
X211787029Y-84059875D02*
X211548934Y-84059875D01*
X211548934Y-84059875D02*
X211406077Y-84107494D01*
X211406077Y-84107494D02*
X211310839Y-84202732D01*
X211310839Y-84202732D02*
X211263220Y-84297970D01*
X211263220Y-84297970D02*
X211215601Y-84488446D01*
X211215601Y-84488446D02*
X211215601Y-84631303D01*
X211215601Y-84631303D02*
X211263220Y-84821779D01*
X211263220Y-84821779D02*
X211310839Y-84917017D01*
X211310839Y-84917017D02*
X211406077Y-85012256D01*
X211406077Y-85012256D02*
X211548934Y-85059875D01*
X211548934Y-85059875D02*
X211787029Y-85059875D01*
X210120362Y-84393208D02*
X209882267Y-85059875D01*
X209882267Y-85059875D02*
X209644172Y-84393208D01*
X209072743Y-84059875D02*
X208977505Y-84059875D01*
X208977505Y-84059875D02*
X208882267Y-84107494D01*
X208882267Y-84107494D02*
X208834648Y-84155113D01*
X208834648Y-84155113D02*
X208787029Y-84250351D01*
X208787029Y-84250351D02*
X208739410Y-84440827D01*
X208739410Y-84440827D02*
X208739410Y-84678922D01*
X208739410Y-84678922D02*
X208787029Y-84869398D01*
X208787029Y-84869398D02*
X208834648Y-84964636D01*
X208834648Y-84964636D02*
X208882267Y-85012256D01*
X208882267Y-85012256D02*
X208977505Y-85059875D01*
X208977505Y-85059875D02*
X209072743Y-85059875D01*
X209072743Y-85059875D02*
X209167981Y-85012256D01*
X209167981Y-85012256D02*
X209215600Y-84964636D01*
X209215600Y-84964636D02*
X209263219Y-84869398D01*
X209263219Y-84869398D02*
X209310838Y-84678922D01*
X209310838Y-84678922D02*
X209310838Y-84440827D01*
X209310838Y-84440827D02*
X209263219Y-84250351D01*
X209263219Y-84250351D02*
X209215600Y-84155113D01*
X209215600Y-84155113D02*
X209167981Y-84107494D01*
X209167981Y-84107494D02*
X209072743Y-84059875D01*
X208310838Y-84964636D02*
X208263219Y-85012256D01*
X208263219Y-85012256D02*
X208310838Y-85059875D01*
X208310838Y-85059875D02*
X208358457Y-85012256D01*
X208358457Y-85012256D02*
X208310838Y-84964636D01*
X208310838Y-84964636D02*
X208310838Y-85059875D01*
X207310839Y-85059875D02*
X207882267Y-85059875D01*
X207596553Y-85059875D02*
X207596553Y-84059875D01*
X207596553Y-84059875D02*
X207691791Y-84202732D01*
X207691791Y-84202732D02*
X207787029Y-84297970D01*
X207787029Y-84297970D02*
X207882267Y-84345589D01*
X227310839Y-86622200D02*
X227167982Y-86669819D01*
X227167982Y-86669819D02*
X226929887Y-86669819D01*
X226929887Y-86669819D02*
X226834649Y-86622200D01*
X226834649Y-86622200D02*
X226787030Y-86574580D01*
X226787030Y-86574580D02*
X226739411Y-86479342D01*
X226739411Y-86479342D02*
X226739411Y-86384104D01*
X226739411Y-86384104D02*
X226787030Y-86288866D01*
X226787030Y-86288866D02*
X226834649Y-86241247D01*
X226834649Y-86241247D02*
X226929887Y-86193628D01*
X226929887Y-86193628D02*
X227120363Y-86146009D01*
X227120363Y-86146009D02*
X227215601Y-86098390D01*
X227215601Y-86098390D02*
X227263220Y-86050771D01*
X227263220Y-86050771D02*
X227310839Y-85955533D01*
X227310839Y-85955533D02*
X227310839Y-85860295D01*
X227310839Y-85860295D02*
X227263220Y-85765057D01*
X227263220Y-85765057D02*
X227215601Y-85717438D01*
X227215601Y-85717438D02*
X227120363Y-85669819D01*
X227120363Y-85669819D02*
X226882268Y-85669819D01*
X226882268Y-85669819D02*
X226739411Y-85717438D01*
X226310839Y-85669819D02*
X226310839Y-86479342D01*
X226310839Y-86479342D02*
X226263220Y-86574580D01*
X226263220Y-86574580D02*
X226215601Y-86622200D01*
X226215601Y-86622200D02*
X226120363Y-86669819D01*
X226120363Y-86669819D02*
X225929887Y-86669819D01*
X225929887Y-86669819D02*
X225834649Y-86622200D01*
X225834649Y-86622200D02*
X225787030Y-86574580D01*
X225787030Y-86574580D02*
X225739411Y-86479342D01*
X225739411Y-86479342D02*
X225739411Y-85669819D01*
X224691792Y-86669819D02*
X225025125Y-86193628D01*
X225263220Y-86669819D02*
X225263220Y-85669819D01*
X225263220Y-85669819D02*
X224882268Y-85669819D01*
X224882268Y-85669819D02*
X224787030Y-85717438D01*
X224787030Y-85717438D02*
X224739411Y-85765057D01*
X224739411Y-85765057D02*
X224691792Y-85860295D01*
X224691792Y-85860295D02*
X224691792Y-86003152D01*
X224691792Y-86003152D02*
X224739411Y-86098390D01*
X224739411Y-86098390D02*
X224787030Y-86146009D01*
X224787030Y-86146009D02*
X224882268Y-86193628D01*
X224882268Y-86193628D02*
X225263220Y-86193628D01*
X224406077Y-85669819D02*
X224072744Y-86669819D01*
X224072744Y-86669819D02*
X223739411Y-85669819D01*
X223406077Y-86669819D02*
X223406077Y-85669819D01*
X222453697Y-86669819D02*
X222929887Y-86669819D01*
X222929887Y-86669819D02*
X222929887Y-85669819D01*
X221929887Y-85669819D02*
X221739411Y-85669819D01*
X221739411Y-85669819D02*
X221644173Y-85717438D01*
X221644173Y-85717438D02*
X221548935Y-85812676D01*
X221548935Y-85812676D02*
X221501316Y-86003152D01*
X221501316Y-86003152D02*
X221501316Y-86336485D01*
X221501316Y-86336485D02*
X221548935Y-86526961D01*
X221548935Y-86526961D02*
X221644173Y-86622200D01*
X221644173Y-86622200D02*
X221739411Y-86669819D01*
X221739411Y-86669819D02*
X221929887Y-86669819D01*
X221929887Y-86669819D02*
X222025125Y-86622200D01*
X222025125Y-86622200D02*
X222120363Y-86526961D01*
X222120363Y-86526961D02*
X222167982Y-86336485D01*
X222167982Y-86336485D02*
X222167982Y-86003152D01*
X222167982Y-86003152D02*
X222120363Y-85812676D01*
X222120363Y-85812676D02*
X222025125Y-85717438D01*
X222025125Y-85717438D02*
X221929887Y-85669819D01*
%LPC*%
D11*
%TO.C,TP8*%
X212500000Y-82250000D03*
%TD*%
D12*
%TO.C,H1*%
X209750000Y-42000000D03*
D13*
X209750000Y-42000000D03*
%TD*%
D11*
%TO.C,TP4*%
X208500000Y-78250000D03*
%TD*%
D14*
%TO.C,J1*%
X228650000Y-43000000D03*
D15*
X226550000Y-50300000D03*
D16*
X230750000Y-50300000D03*
X226550000Y-55800000D03*
X230750000Y-55800000D03*
%TD*%
D11*
%TO.C,TP5*%
X212500000Y-78250000D03*
%TD*%
D12*
%TO.C,H4*%
X245250000Y-87500000D03*
D13*
X245250000Y-87500000D03*
%TD*%
D12*
%TO.C,H3*%
X209750000Y-88750000D03*
D13*
X209750000Y-88750000D03*
%TD*%
D17*
%TO.C,J2*%
X242890000Y-42855000D03*
X237110000Y-42855000D03*
D18*
X244320000Y-43375000D03*
D19*
X244320000Y-39175000D03*
D18*
X235680000Y-43375000D03*
D19*
X235680000Y-39175000D03*
%TD*%
D12*
%TO.C,H2*%
X245250000Y-50250000D03*
D13*
X245250000Y-50250000D03*
%TD*%
D11*
%TO.C,TP1*%
X245400000Y-62800000D03*
%TD*%
%TO.C,TP6*%
X208500000Y-82250000D03*
%TD*%
%LPD*%
M02*
