%TF.GenerationSoftware,KiCad,Pcbnew,9.0.6-9.0.6~ubuntu22.04.1*%
%TF.CreationDate,2026-06-23T21:31:26-04:00*%
%TF.ProjectId,OBD1_Scanner,4f424431-5f53-4636-916e-6e65722e6b69,rev?*%
%TF.SameCoordinates,Original*%
%TF.FileFunction,Copper,L2,Bot*%
%TF.FilePolarity,Positive*%
%FSLAX46Y46*%
G04 Gerber Fmt 4.6, Leading zero omitted, Abs format (unit mm)*
G04 Created by KiCad (PCBNEW 9.0.6-9.0.6~ubuntu22.04.1) date 2026-06-23 21:31:26*
%MOMM*%
%LPD*%
G01*
G04 APERTURE LIST*
G04 Aperture macros list*
%AMRoundRect*
0 Rectangle with rounded corners*
0 $1 Rounding radius*
0 $2 $3 $4 $5 $6 $7 $8 $9 X,Y pos of 4 corners*
0 Add a 4 corners polygon primitive as box body*
4,1,4,$2,$3,$4,$5,$6,$7,$8,$9,$2,$3,0*
0 Add four circle primitives for the rounded corners*
1,1,$1+$1,$2,$3*
1,1,$1+$1,$4,$5*
1,1,$1+$1,$6,$7*
1,1,$1+$1,$8,$9*
0 Add four rect primitives between the rounded corners*
20,1,$1+$1,$2,$3,$4,$5,0*
20,1,$1+$1,$4,$5,$6,$7,0*
20,1,$1+$1,$6,$7,$8,$9,0*
20,1,$1+$1,$8,$9,$2,$3,0*%
G04 Aperture macros list end*
%TA.AperFunction,ComponentPad*%
%ADD10C,2.800000*%
%TD*%
%TA.AperFunction,ComponentPad*%
%ADD11C,3.600000*%
%TD*%
%TA.AperFunction,ConnectorPad*%
%ADD12C,5.700000*%
%TD*%
%TA.AperFunction,ComponentPad*%
%ADD13RoundRect,0.250001X-1.099999X-1.599999X1.099999X-1.599999X1.099999X1.599999X-1.099999X1.599999X0*%
%TD*%
%TA.AperFunction,ComponentPad*%
%ADD14O,2.700000X3.700000*%
%TD*%
%TA.AperFunction,HeatsinkPad*%
%ADD15C,0.600000*%
%TD*%
%TA.AperFunction,HeatsinkPad*%
%ADD16O,1.000000X2.100000*%
%TD*%
%TA.AperFunction,HeatsinkPad*%
%ADD17O,1.000000X1.800000*%
%TD*%
%TA.AperFunction,ComponentPad*%
%ADD18C,0.600000*%
%TD*%
%TA.AperFunction,SMDPad,CuDef*%
%ADD19R,4.900000X2.950000*%
%TD*%
%TA.AperFunction,ViaPad*%
%ADD20C,0.600000*%
%TD*%
%TA.AperFunction,Conductor*%
%ADD21C,0.750000*%
%TD*%
%TA.AperFunction,Conductor*%
%ADD22C,0.500000*%
%TD*%
%TA.AperFunction,Conductor*%
%ADD23C,0.300000*%
%TD*%
%TA.AperFunction,Conductor*%
%ADD24C,0.400000*%
%TD*%
%TA.AperFunction,Conductor*%
%ADD25C,0.200000*%
%TD*%
G04 APERTURE END LIST*
D10*
%TO.P,TP8,1,1*%
%TO.N,/MCU_RX*%
X212500000Y-82250000D03*
%TD*%
D11*
%TO.P,H1,1*%
%TO.N,N/C*%
X209750000Y-42000000D03*
D12*
X209750000Y-42000000D03*
%TD*%
D10*
%TO.P,TP4,1,1*%
%TO.N,Net-(U3-A)*%
X208500000Y-78250000D03*
%TD*%
D13*
%TO.P,J1,1,Pin_1*%
%TO.N,+12V*%
X226550000Y-50300000D03*
D14*
%TO.P,J1,2,Pin_2*%
%TO.N,GND*%
X230750000Y-50300000D03*
%TO.P,J1,3,Pin_3*%
%TO.N,/ECU_RX*%
X226550000Y-55800000D03*
%TO.P,J1,4,Pin_4*%
%TO.N,/ECU_TX*%
X230750000Y-55800000D03*
%TD*%
D10*
%TO.P,TP5,1,1*%
%TO.N,/MCU_TX*%
X212500000Y-78250000D03*
%TD*%
D11*
%TO.P,H4,1*%
%TO.N,N/C*%
X245250000Y-87500000D03*
D12*
X245250000Y-87500000D03*
%TD*%
D11*
%TO.P,H3,1*%
%TO.N,N/C*%
X209750000Y-88750000D03*
D12*
X209750000Y-88750000D03*
%TD*%
D15*
%TO.P,U1,41,GND*%
%TO.N,GND*%
X231650000Y-84240000D03*
X231650000Y-82840000D03*
X230950000Y-84940000D03*
X230950000Y-83540000D03*
X230950000Y-82140000D03*
X230250000Y-84240000D03*
X230250000Y-82840000D03*
X229550000Y-84940000D03*
X229550000Y-83540000D03*
X229550000Y-82140000D03*
X228850000Y-84240000D03*
X228850000Y-82840000D03*
%TD*%
D16*
%TO.P,J2,S1,SHIELD*%
%TO.N,GND*%
X244320000Y-43375000D03*
D17*
X244320000Y-39175000D03*
D16*
X235680000Y-43375000D03*
D17*
X235680000Y-39175000D03*
%TD*%
D18*
%TO.P,U2,9,GND*%
%TO.N,GND*%
X220815000Y-53650000D03*
X219515000Y-53650000D03*
X218215000Y-53650000D03*
X216915000Y-53650000D03*
D19*
X218865000Y-54300000D03*
D18*
X220815000Y-54950000D03*
X219515000Y-54950000D03*
X218215000Y-54950000D03*
X216915000Y-54950000D03*
%TD*%
D11*
%TO.P,H2,1*%
%TO.N,N/C*%
X245250000Y-50250000D03*
D12*
X245250000Y-50250000D03*
%TD*%
D10*
%TO.P,TP1,1,1*%
%TO.N,GND*%
X245400000Y-62800000D03*
%TD*%
%TO.P,TP6,1,1*%
%TO.N,Net-(U5-A)*%
X208500000Y-82250000D03*
%TD*%
D20*
%TO.N,GND*%
X214800000Y-83200000D03*
X211000000Y-75500000D03*
X214000000Y-92250000D03*
X238800000Y-39400000D03*
X229000000Y-91750000D03*
X224500000Y-40000000D03*
X213750000Y-89000000D03*
X232600000Y-80000000D03*
X244800000Y-75200000D03*
X214600000Y-53600000D03*
X216250000Y-64500000D03*
X234112500Y-70512500D03*
X210800000Y-53400000D03*
X229000000Y-75600000D03*
X247500000Y-40000000D03*
X231000000Y-91750000D03*
X214000000Y-47250000D03*
X239200000Y-79000000D03*
X216200000Y-83200000D03*
X208800000Y-66200000D03*
X222000000Y-88750000D03*
X240400000Y-48200000D03*
X239200000Y-81600000D03*
X207800000Y-49200000D03*
X232250000Y-60000000D03*
X227800000Y-75600000D03*
X222200000Y-67600000D03*
X243200000Y-78000000D03*
X211500000Y-70600000D03*
X241400000Y-39400000D03*
X229400000Y-80000000D03*
X227051000Y-68500000D03*
X222250000Y-70750000D03*
X225000000Y-60250000D03*
X232250000Y-61000000D03*
X227000000Y-91750000D03*
X247000000Y-81200000D03*
X207050000Y-66200000D03*
X223000000Y-44200000D03*
X218250000Y-87750000D03*
X237000000Y-60250000D03*
X230750000Y-46750000D03*
X240400000Y-49400000D03*
X238400000Y-68400000D03*
X206850000Y-70600000D03*
X215750000Y-38750000D03*
X222000000Y-87750000D03*
X238500000Y-60250000D03*
X215750000Y-40000000D03*
X247250000Y-46750000D03*
X226400000Y-80000000D03*
X233250000Y-50000000D03*
X222000000Y-57000000D03*
X218600000Y-44200000D03*
X247599094Y-77954186D03*
X243400000Y-71400000D03*
X232400000Y-39400000D03*
X243000000Y-81200000D03*
X222000000Y-86750000D03*
X210250000Y-74500000D03*
X217400000Y-59400000D03*
X246400000Y-74400000D03*
X246200000Y-81800000D03*
X216600000Y-59400000D03*
X215500000Y-92250000D03*
X207800000Y-50600000D03*
X233250000Y-51500000D03*
X244600000Y-69800000D03*
X214600000Y-54600000D03*
X238400000Y-70000000D03*
X227250000Y-60250000D03*
X236800000Y-73600000D03*
X227000000Y-40000000D03*
X219500000Y-40000000D03*
X225250000Y-42000000D03*
X218249071Y-88744431D03*
X227199999Y-65189949D03*
X229250000Y-60250000D03*
X210800000Y-54200000D03*
X246250000Y-46750000D03*
X218250000Y-86750000D03*
X231250000Y-39500000D03*
X220500000Y-70750000D03*
X247200000Y-66600000D03*
%TO.N,+12V*%
X232200000Y-44400000D03*
X231400000Y-42000000D03*
%TO.N,/5V_BUCK*%
X209250000Y-48500000D03*
X210600000Y-49800000D03*
X210000000Y-56600000D03*
%TO.N,+3.3V*%
X226200000Y-65200000D03*
X221639368Y-77389368D03*
%TO.N,Net-(U2-SW)*%
X220940000Y-61950000D03*
X221200000Y-65800000D03*
%TO.N,Net-(U2-BOOT)*%
X219000000Y-62800000D03*
X219600000Y-65600000D03*
%TO.N,/RST_BUTTON*%
X239280000Y-88720000D03*
X245000000Y-80500000D03*
X242492500Y-91237500D03*
%TO.N,/LED1_B*%
X240500000Y-66500000D03*
X240459000Y-75750000D03*
%TO.N,/LED1_G*%
X242000000Y-69500000D03*
X240750000Y-72750000D03*
%TO.N,Net-(J2-CC2)*%
X241750000Y-47000000D03*
X240500000Y-42250000D03*
%TO.N,/MCU_PWR_CONTROL*%
X224450000Y-49234620D03*
X231800000Y-72000000D03*
X235800000Y-57600000D03*
X215345000Y-47945000D03*
%TO.N,/LED_TX*%
X208200000Y-61200000D03*
X218659620Y-71740380D03*
%TO.N,/MCU_TX*%
X234000000Y-65500000D03*
X235750000Y-78500000D03*
X222505025Y-78505025D03*
%TO.N,/LED_RX*%
X207200000Y-61400000D03*
X219000000Y-72800000D03*
%TO.N,/MCU_RX*%
X232700000Y-71500000D03*
X235500000Y-79750000D03*
X222458000Y-80542000D03*
%TO.N,Net-(U3-A)*%
X228250000Y-65250000D03*
X226424000Y-63579070D03*
%TO.N,Net-(U2-PG)*%
X217415000Y-50450000D03*
X223000000Y-62200000D03*
X222900000Y-66000000D03*
X221915000Y-50450000D03*
%TO.N,/USER_BUTTON*%
X235000000Y-76750000D03*
X243870000Y-73700000D03*
%TO.N,Net-(U1-IO0)*%
X212400000Y-75000000D03*
X221644393Y-76394393D03*
%TO.N,Net-(U5-A)*%
X228000000Y-70500000D03*
X231000000Y-60500000D03*
%TO.N,Net-(U2-VCC)*%
X220400000Y-69000000D03*
X218000000Y-63000000D03*
%TD*%
D21*
%TO.N,GND*%
X218865000Y-54300000D02*
X219500000Y-54300000D01*
X218865000Y-54300000D02*
X219900000Y-54300000D01*
X218865000Y-54300000D02*
X217900000Y-54300000D01*
X216365000Y-51800000D02*
X215800000Y-51800000D01*
X219500000Y-54300000D02*
X221600000Y-52200000D01*
X218865000Y-54300000D02*
X216365000Y-51800000D01*
X219900000Y-54300000D02*
X222000000Y-56400000D01*
D22*
%TO.N,+12V*%
X232200000Y-42800000D02*
X231400000Y-42000000D01*
X232200000Y-44400000D02*
X232200000Y-42800000D01*
D23*
%TO.N,/5V_BUCK*%
X209849000Y-56449000D02*
X210000000Y-56600000D01*
X209849000Y-50551000D02*
X209849000Y-56449000D01*
X209250000Y-48500000D02*
X209300000Y-48500000D01*
X209300000Y-48500000D02*
X210600000Y-49800000D01*
X210600000Y-49800000D02*
X209849000Y-50551000D01*
D24*
%TO.N,+3.3V*%
X224000000Y-65200000D02*
X226200000Y-65200000D01*
X221639368Y-77389368D02*
X223600000Y-75428736D01*
X223600000Y-75428736D02*
X223600000Y-65600000D01*
X223600000Y-65600000D02*
X224000000Y-65200000D01*
D23*
%TO.N,Net-(U2-SW)*%
X221200000Y-65800000D02*
X220940000Y-65540000D01*
X220940000Y-65540000D02*
X220940000Y-61950000D01*
%TO.N,Net-(U2-BOOT)*%
X219600000Y-65600000D02*
X219000000Y-65000000D01*
X219000000Y-65000000D02*
X219000000Y-62800000D01*
D25*
%TO.N,/RST_BUTTON*%
X241250000Y-85750000D02*
X245000000Y-82000000D01*
X239975000Y-88720000D02*
X240030000Y-88720000D01*
X240030000Y-88720000D02*
X241250000Y-87500000D01*
X245000000Y-82000000D02*
X245000000Y-80500000D01*
X242492500Y-91237500D02*
X239975000Y-88720000D01*
X241250000Y-87500000D02*
X241250000Y-85750000D01*
X239975000Y-88720000D02*
X239280000Y-88720000D01*
D23*
%TO.N,/LED1_B*%
X240359000Y-70588042D02*
X240750000Y-70197042D01*
X240359000Y-72220346D02*
X240359000Y-70588042D01*
X240750000Y-66750000D02*
X240500000Y-66500000D01*
X240750000Y-70197042D02*
X240750000Y-66750000D01*
X240750000Y-75459000D02*
X240750000Y-73401000D01*
X240459000Y-75750000D02*
X240750000Y-75459000D01*
X240750000Y-73401000D02*
X240480346Y-73401000D01*
X240099000Y-72480346D02*
X240359000Y-72220346D01*
X240480346Y-73401000D02*
X240099000Y-73019654D01*
X240099000Y-73019654D02*
X240099000Y-72480346D01*
%TO.N,/LED1_G*%
X240750000Y-72750000D02*
X240750000Y-70750000D01*
X240750000Y-70750000D02*
X242000000Y-69500000D01*
D24*
%TO.N,/ECU_TX*%
X231350000Y-56050000D02*
X230750000Y-56650000D01*
%TO.N,/ECU_RX*%
X227150000Y-56050000D02*
X226550000Y-56650000D01*
D25*
%TO.N,Net-(J2-CC2)*%
X241671064Y-45421064D02*
X241750000Y-45500000D01*
X241750000Y-43842128D02*
X241671064Y-43921064D01*
X241600735Y-42250000D02*
X241750000Y-42399265D01*
X240500000Y-42250000D02*
X241600735Y-42250000D01*
X241671064Y-43921064D02*
X241671064Y-45421064D01*
X241750000Y-42399265D02*
X241750000Y-43842128D01*
X241750000Y-45500000D02*
X241750000Y-47000000D01*
D23*
%TO.N,/MCU_PWR_CONTROL*%
X222184654Y-49799000D02*
X217199000Y-49799000D01*
X233979346Y-64600000D02*
X234200000Y-64600000D01*
X234200000Y-64600000D02*
X234600000Y-64600000D01*
X222385654Y-50000000D02*
X222184654Y-49799000D01*
X234600000Y-64600000D02*
X235800000Y-63400000D01*
X235800000Y-63400000D02*
X235800000Y-57600000D01*
X232200000Y-70400000D02*
X232200000Y-66379346D01*
X223684620Y-50000000D02*
X222385654Y-50000000D01*
X217199000Y-49799000D02*
X215345000Y-47945000D01*
X224450000Y-49234620D02*
X223684620Y-50000000D01*
X231800000Y-70800000D02*
X232200000Y-70400000D01*
X232200000Y-66379346D02*
X233979346Y-64600000D01*
X231800000Y-72000000D02*
X231800000Y-70800000D01*
%TO.N,/LED_TX*%
X208200000Y-61647042D02*
X209676479Y-63123521D01*
X218293338Y-71740380D02*
X218659620Y-71740380D01*
X208200000Y-61200000D02*
X208200000Y-61647042D01*
X209676479Y-63123521D02*
X218293338Y-71740380D01*
D24*
%TO.N,/MCU_TX*%
X221440000Y-79560000D02*
X213810000Y-79560000D01*
X222400000Y-78400000D02*
X222400000Y-78600000D01*
X234000000Y-71808636D02*
X232791364Y-70600000D01*
X232791364Y-70600000D02*
X232700000Y-70600000D01*
X234000000Y-76750000D02*
X235750000Y-78500000D01*
X232700000Y-66800000D02*
X234000000Y-65500000D01*
X222400000Y-78600000D02*
X221440000Y-79560000D01*
X232700000Y-70600000D02*
X232700000Y-66800000D01*
X213810000Y-79560000D02*
X212500000Y-78250000D01*
X222505025Y-78505025D02*
X222400000Y-78400000D01*
X234000000Y-76750000D02*
X234000000Y-71808636D01*
D23*
%TO.N,/LED_RX*%
X208200000Y-62200000D02*
X207400000Y-61400000D01*
X208200000Y-62200000D02*
X219000000Y-73000000D01*
X207400000Y-61400000D02*
X207200000Y-61400000D01*
D24*
%TO.N,/MCU_RX*%
X214208000Y-80542000D02*
X212500000Y-82250000D01*
X232700000Y-71500000D02*
X233250000Y-72050000D01*
X222458000Y-80542000D02*
X214208000Y-80542000D01*
X233250000Y-77500000D02*
X235500000Y-79750000D01*
X233250000Y-72050000D02*
X233250000Y-77500000D01*
%TO.N,Net-(U3-A)*%
X228000000Y-65500000D02*
X225750000Y-67750000D01*
X225750000Y-67750000D02*
X225750000Y-70400058D01*
X225000000Y-71150058D02*
X225000000Y-75000000D01*
X223500000Y-76518686D02*
X221804025Y-78214661D01*
X221305622Y-79000000D02*
X216000000Y-79000000D01*
X210550000Y-76200000D02*
X208500000Y-78250000D01*
X225000000Y-75000000D02*
X223500000Y-76500000D01*
X221804025Y-78214661D02*
X221804025Y-78501597D01*
X216000000Y-79000000D02*
X213200000Y-76200000D01*
X213200000Y-76200000D02*
X210550000Y-76200000D01*
X226550000Y-63550000D02*
X228250000Y-65250000D01*
X223500000Y-76500000D02*
X223500000Y-76518686D01*
X221804025Y-78501597D02*
X221305622Y-79000000D01*
X225750000Y-70400058D02*
X225000000Y-71150058D01*
D23*
%TO.N,Net-(U2-PG)*%
X221915000Y-50450000D02*
X217415000Y-50450000D01*
X222900000Y-66000000D02*
X222900000Y-62300000D01*
X222900000Y-62300000D02*
X223000000Y-62200000D01*
D24*
%TO.N,/USER_BUTTON*%
X238250000Y-76750000D02*
X240820000Y-76750000D01*
X238250000Y-76750000D02*
X235000000Y-76750000D01*
X240820000Y-76750000D02*
X243870000Y-73700000D01*
D23*
%TO.N,Net-(U1-IO0)*%
X213382668Y-75759000D02*
X213159000Y-75759000D01*
X213159000Y-75759000D02*
X212400000Y-75000000D01*
X221605607Y-76394393D02*
X219500000Y-78500000D01*
X221644393Y-76394393D02*
X221605607Y-76394393D01*
X219500000Y-78500000D02*
X216123668Y-78500000D01*
X216123668Y-78500000D02*
X213382668Y-75759000D01*
D24*
%TO.N,Net-(U5-A)*%
X230750000Y-60750000D02*
X230750000Y-63750000D01*
X231000000Y-60500000D02*
X230750000Y-60750000D01*
X226351000Y-70649000D02*
X227851000Y-70649000D01*
X227851000Y-70649000D02*
X228000000Y-70500000D01*
X221949000Y-80051000D02*
X210699000Y-80051000D01*
X226000000Y-76000000D02*
X221949000Y-80051000D01*
X210699000Y-80051000D02*
X208500000Y-82250000D01*
X226000000Y-71000000D02*
X226351000Y-70649000D01*
X230750000Y-63750000D02*
X226351000Y-68149000D01*
X226000000Y-76000000D02*
X226000000Y-71000000D01*
X226351000Y-68149000D02*
X226351000Y-70649000D01*
D23*
%TO.N,Net-(U2-VCC)*%
X217400000Y-66000000D02*
X220400000Y-69000000D01*
X218000000Y-63000000D02*
X217400000Y-63600000D01*
X217400000Y-63600000D02*
X217400000Y-66000000D01*
%TD*%
%TA.AperFunction,Conductor*%
%TO.N,GND*%
G36*
X234829865Y-38020185D02*
G01*
X234875620Y-38072989D01*
X234885564Y-38142147D01*
X234865928Y-38193391D01*
X234793814Y-38301315D01*
X234793807Y-38301328D01*
X234718430Y-38483306D01*
X234718427Y-38483318D01*
X234680000Y-38676504D01*
X234680000Y-38925000D01*
X235380000Y-38925000D01*
X235380000Y-39425000D01*
X234680000Y-39425000D01*
X234680000Y-39673495D01*
X234718427Y-39866681D01*
X234718430Y-39866693D01*
X234793807Y-40048671D01*
X234793814Y-40048684D01*
X234903248Y-40212462D01*
X234903251Y-40212466D01*
X235042533Y-40351748D01*
X235042537Y-40351751D01*
X235206315Y-40461185D01*
X235206328Y-40461192D01*
X235388308Y-40536569D01*
X235430000Y-40544862D01*
X235430000Y-39741988D01*
X235439940Y-39759205D01*
X235495795Y-39815060D01*
X235564204Y-39854556D01*
X235640504Y-39875000D01*
X235719496Y-39875000D01*
X235795796Y-39854556D01*
X235864205Y-39815060D01*
X235920060Y-39759205D01*
X235930000Y-39741988D01*
X235930000Y-40544862D01*
X235971690Y-40536569D01*
X235971692Y-40536569D01*
X236153671Y-40461192D01*
X236153684Y-40461185D01*
X236317462Y-40351751D01*
X236317466Y-40351748D01*
X236456748Y-40212466D01*
X236456751Y-40212462D01*
X236566185Y-40048684D01*
X236566192Y-40048671D01*
X236641569Y-39866693D01*
X236641572Y-39866681D01*
X236679999Y-39673495D01*
X236680000Y-39673492D01*
X236680000Y-39425000D01*
X235980000Y-39425000D01*
X235980000Y-38925000D01*
X236680000Y-38925000D01*
X236680000Y-38676508D01*
X236679999Y-38676504D01*
X236641572Y-38483318D01*
X236641569Y-38483306D01*
X236566192Y-38301328D01*
X236566185Y-38301315D01*
X236494072Y-38193391D01*
X236473194Y-38126714D01*
X236491678Y-38059333D01*
X236543657Y-38012643D01*
X236597174Y-38000500D01*
X243402826Y-38000500D01*
X243469865Y-38020185D01*
X243515620Y-38072989D01*
X243525564Y-38142147D01*
X243505928Y-38193391D01*
X243433814Y-38301315D01*
X243433807Y-38301328D01*
X243358430Y-38483306D01*
X243358427Y-38483318D01*
X243320000Y-38676504D01*
X243320000Y-38925000D01*
X244020000Y-38925000D01*
X244020000Y-39425000D01*
X243320000Y-39425000D01*
X243320000Y-39673495D01*
X243358427Y-39866681D01*
X243358430Y-39866693D01*
X243433807Y-40048671D01*
X243433814Y-40048684D01*
X243543248Y-40212462D01*
X243543251Y-40212466D01*
X243682533Y-40351748D01*
X243682537Y-40351751D01*
X243846315Y-40461185D01*
X243846328Y-40461192D01*
X244028308Y-40536569D01*
X244070000Y-40544862D01*
X244070000Y-39741988D01*
X244079940Y-39759205D01*
X244135795Y-39815060D01*
X244204204Y-39854556D01*
X244280504Y-39875000D01*
X244359496Y-39875000D01*
X244435796Y-39854556D01*
X244504205Y-39815060D01*
X244560060Y-39759205D01*
X244570000Y-39741988D01*
X244570000Y-40544862D01*
X244611690Y-40536569D01*
X244611692Y-40536569D01*
X244793671Y-40461192D01*
X244793684Y-40461185D01*
X244957462Y-40351751D01*
X244957466Y-40351748D01*
X245096748Y-40212466D01*
X245096751Y-40212462D01*
X245206185Y-40048684D01*
X245206192Y-40048671D01*
X245281569Y-39866693D01*
X245281572Y-39866681D01*
X245319999Y-39673495D01*
X245320000Y-39673492D01*
X245320000Y-39425000D01*
X244620000Y-39425000D01*
X244620000Y-38925000D01*
X245320000Y-38925000D01*
X245320000Y-38676508D01*
X245319999Y-38676504D01*
X245281572Y-38483318D01*
X245281569Y-38483306D01*
X245206192Y-38301328D01*
X245206185Y-38301315D01*
X245134072Y-38193391D01*
X245113194Y-38126714D01*
X245131678Y-38059333D01*
X245183657Y-38012643D01*
X245237174Y-38000500D01*
X245934108Y-38000500D01*
X245996249Y-38000500D01*
X246003736Y-38000726D01*
X246263662Y-38016448D01*
X246278524Y-38018253D01*
X246289067Y-38020185D01*
X246530969Y-38064515D01*
X246545498Y-38068096D01*
X246790523Y-38144449D01*
X246804516Y-38149755D01*
X247038562Y-38255091D01*
X247051808Y-38262044D01*
X247271449Y-38394821D01*
X247283760Y-38403319D01*
X247401349Y-38495444D01*
X247485792Y-38561601D01*
X247497000Y-38571531D01*
X247678468Y-38752999D01*
X247688398Y-38764207D01*
X247846676Y-38966233D01*
X247855180Y-38978553D01*
X247903233Y-39058042D01*
X247987952Y-39198185D01*
X247994911Y-39211444D01*
X248100242Y-39445480D01*
X248105551Y-39459480D01*
X248181901Y-39704494D01*
X248185485Y-39719034D01*
X248231746Y-39971475D01*
X248233551Y-39986339D01*
X248249273Y-40246261D01*
X248249499Y-40253748D01*
X248249499Y-48479549D01*
X248229814Y-48546588D01*
X248177010Y-48592343D01*
X248107852Y-48602287D01*
X248044296Y-48573262D01*
X248022397Y-48548440D01*
X247894693Y-48357317D01*
X247863975Y-48311344D01*
X247661366Y-48064465D01*
X247661365Y-48064464D01*
X247661361Y-48064459D01*
X247435540Y-47838638D01*
X247188661Y-47636029D01*
X247188638Y-47636012D01*
X246923122Y-47458601D01*
X246923094Y-47458584D01*
X246641451Y-47308042D01*
X246641446Y-47308040D01*
X246346382Y-47185820D01*
X246040754Y-47093109D01*
X245727521Y-47030803D01*
X245727522Y-47030803D01*
X245488141Y-47007227D01*
X245409687Y-46999500D01*
X245090313Y-46999500D01*
X245017822Y-47006639D01*
X244772477Y-47030803D01*
X244459245Y-47093109D01*
X244153617Y-47185820D01*
X243858553Y-47308040D01*
X243858548Y-47308042D01*
X243576905Y-47458584D01*
X243576877Y-47458601D01*
X243311361Y-47636012D01*
X243311338Y-47636029D01*
X243064459Y-47838638D01*
X242838638Y-48064459D01*
X242636029Y-48311338D01*
X242636012Y-48311361D01*
X242458601Y-48576877D01*
X242458584Y-48576905D01*
X242308042Y-48858548D01*
X242308040Y-48858553D01*
X242185820Y-49153617D01*
X242093109Y-49459245D01*
X242030803Y-49772477D01*
X242015006Y-49932877D01*
X241999500Y-50090313D01*
X241999500Y-50409687D01*
X242002536Y-50440508D01*
X242030803Y-50727522D01*
X242093109Y-51040754D01*
X242185820Y-51346382D01*
X242250500Y-51502532D01*
X242299147Y-51619978D01*
X242308040Y-51641446D01*
X242308042Y-51641451D01*
X242458584Y-51923094D01*
X242458601Y-51923122D01*
X242636012Y-52188638D01*
X242636029Y-52188661D01*
X242838638Y-52435540D01*
X243064459Y-52661361D01*
X243064464Y-52661365D01*
X243064465Y-52661366D01*
X243311344Y-52863975D01*
X243311351Y-52863980D01*
X243311361Y-52863987D01*
X243576877Y-53041398D01*
X243576882Y-53041401D01*
X243576894Y-53041409D01*
X243576903Y-53041413D01*
X243576905Y-53041415D01*
X243858548Y-53191957D01*
X243858550Y-53191957D01*
X243858556Y-53191961D01*
X244153619Y-53314180D01*
X244459240Y-53406889D01*
X244772477Y-53469196D01*
X245090313Y-53500500D01*
X245090316Y-53500500D01*
X245409684Y-53500500D01*
X245409687Y-53500500D01*
X245727523Y-53469196D01*
X246040760Y-53406889D01*
X246346381Y-53314180D01*
X246641444Y-53191961D01*
X246923106Y-53041409D01*
X247188656Y-52863975D01*
X247435535Y-52661366D01*
X247661366Y-52435535D01*
X247863975Y-52188656D01*
X247988315Y-52002567D01*
X248022397Y-51951560D01*
X248076009Y-51906754D01*
X248145334Y-51898047D01*
X248208361Y-51928201D01*
X248245081Y-51987644D01*
X248249499Y-52020450D01*
X248249499Y-85729549D01*
X248229814Y-85796588D01*
X248177010Y-85842343D01*
X248107852Y-85852287D01*
X248044296Y-85823262D01*
X248022397Y-85798440D01*
X247885201Y-85593111D01*
X247863975Y-85561344D01*
X247661366Y-85314465D01*
X247661365Y-85314464D01*
X247661361Y-85314459D01*
X247435540Y-85088638D01*
X247188661Y-84886029D01*
X247188638Y-84886012D01*
X246923122Y-84708601D01*
X246923094Y-84708584D01*
X246641451Y-84558042D01*
X246641446Y-84558040D01*
X246346382Y-84435820D01*
X246040754Y-84343109D01*
X245727521Y-84280803D01*
X245727522Y-84280803D01*
X245488141Y-84257227D01*
X245409687Y-84249500D01*
X245090313Y-84249500D01*
X245017822Y-84256639D01*
X244772477Y-84280803D01*
X244459245Y-84343109D01*
X244153617Y-84435820D01*
X243858553Y-84558040D01*
X243858548Y-84558042D01*
X243576905Y-84708584D01*
X243576877Y-84708601D01*
X243311361Y-84886012D01*
X243311338Y-84886029D01*
X243064459Y-85088638D01*
X242838638Y-85314459D01*
X242636029Y-85561338D01*
X242636012Y-85561361D01*
X242458601Y-85826877D01*
X242458584Y-85826905D01*
X242308042Y-86108548D01*
X242308040Y-86108553D01*
X242185820Y-86403617D01*
X242093109Y-86709245D01*
X242030803Y-87022477D01*
X242006639Y-87267822D01*
X241999500Y-87340313D01*
X241999500Y-87659687D01*
X242002800Y-87693188D01*
X242030803Y-87977522D01*
X242093109Y-88290754D01*
X242185820Y-88596382D01*
X242308040Y-88891446D01*
X242308042Y-88891451D01*
X242458584Y-89173094D01*
X242458601Y-89173122D01*
X242636012Y-89438638D01*
X242636029Y-89438661D01*
X242838638Y-89685540D01*
X243064459Y-89911361D01*
X243064464Y-89911365D01*
X243064465Y-89911366D01*
X243311344Y-90113975D01*
X243311351Y-90113980D01*
X243311361Y-90113987D01*
X243576877Y-90291398D01*
X243576882Y-90291401D01*
X243576894Y-90291409D01*
X243576903Y-90291413D01*
X243576905Y-90291415D01*
X243858548Y-90441957D01*
X243858550Y-90441957D01*
X243858556Y-90441961D01*
X244153619Y-90564180D01*
X244459240Y-90656889D01*
X244772477Y-90719196D01*
X245090313Y-90750500D01*
X245090316Y-90750500D01*
X245409684Y-90750500D01*
X245409687Y-90750500D01*
X245727523Y-90719196D01*
X246040760Y-90656889D01*
X246346381Y-90564180D01*
X246641444Y-90441961D01*
X246923106Y-90291409D01*
X247188656Y-90113975D01*
X247435535Y-89911366D01*
X247661366Y-89685535D01*
X247863975Y-89438656D01*
X247980602Y-89264111D01*
X248022397Y-89201560D01*
X248076009Y-89156754D01*
X248145334Y-89148047D01*
X248208361Y-89178201D01*
X248245081Y-89237644D01*
X248249499Y-89270450D01*
X248249499Y-92626000D01*
X248229814Y-92693039D01*
X248177010Y-92738794D01*
X248125499Y-92750000D01*
X238439181Y-92750000D01*
X238372142Y-92730315D01*
X238366296Y-92726318D01*
X238333364Y-92702392D01*
X238333363Y-92702391D01*
X238333361Y-92702390D01*
X238136751Y-92602212D01*
X237926892Y-92534022D01*
X237926890Y-92534021D01*
X237926888Y-92534021D01*
X237708945Y-92499500D01*
X237664494Y-92499500D01*
X237664492Y-92499500D01*
X237598619Y-92499500D01*
X237532727Y-92499499D01*
X237532723Y-92499500D01*
X219974883Y-92499500D01*
X219974866Y-92499499D01*
X219967273Y-92499499D01*
X219901381Y-92499500D01*
X219791052Y-92499500D01*
X219573111Y-92534021D01*
X219573108Y-92534022D01*
X219363249Y-92602212D01*
X219316563Y-92626000D01*
X219166635Y-92702392D01*
X219133704Y-92726318D01*
X219067898Y-92749798D01*
X219060819Y-92750000D01*
X206624502Y-92750000D01*
X206557463Y-92730315D01*
X206511708Y-92677511D01*
X206500502Y-92626000D01*
X206500502Y-91363970D01*
X206500501Y-90022370D01*
X206520186Y-89955332D01*
X206572989Y-89909577D01*
X206642148Y-89899633D01*
X206705704Y-89928658D01*
X206739061Y-89974917D01*
X206796659Y-90113970D01*
X206808040Y-90141446D01*
X206808042Y-90141451D01*
X206958584Y-90423094D01*
X206958601Y-90423122D01*
X207136012Y-90688638D01*
X207136029Y-90688661D01*
X207338638Y-90935540D01*
X207564459Y-91161361D01*
X207564464Y-91161365D01*
X207564465Y-91161366D01*
X207811344Y-91363975D01*
X207811351Y-91363980D01*
X207811361Y-91363987D01*
X208076877Y-91541398D01*
X208076882Y-91541401D01*
X208076894Y-91541409D01*
X208076903Y-91541413D01*
X208076905Y-91541415D01*
X208358548Y-91691957D01*
X208358550Y-91691957D01*
X208358556Y-91691961D01*
X208653619Y-91814180D01*
X208959240Y-91906889D01*
X209272477Y-91969196D01*
X209590313Y-92000500D01*
X209590316Y-92000500D01*
X209909684Y-92000500D01*
X209909687Y-92000500D01*
X210227523Y-91969196D01*
X210540760Y-91906889D01*
X210846381Y-91814180D01*
X211141444Y-91691961D01*
X211423106Y-91541409D01*
X211688656Y-91363975D01*
X211935535Y-91161366D01*
X212161366Y-90935535D01*
X212363975Y-90688656D01*
X212541409Y-90423106D01*
X212691961Y-90141444D01*
X212814180Y-89846381D01*
X212906889Y-89540760D01*
X212969196Y-89227523D01*
X213000500Y-88909687D01*
X213000500Y-88788995D01*
X238579499Y-88788995D01*
X238606418Y-88924322D01*
X238606421Y-88924332D01*
X238659221Y-89051804D01*
X238659228Y-89051817D01*
X238735885Y-89166541D01*
X238735888Y-89166545D01*
X238833454Y-89264111D01*
X238833458Y-89264114D01*
X238948182Y-89340771D01*
X238948195Y-89340778D01*
X239075667Y-89393578D01*
X239075672Y-89393580D01*
X239075676Y-89393580D01*
X239075677Y-89393581D01*
X239211004Y-89420500D01*
X239211007Y-89420500D01*
X239348995Y-89420500D01*
X239440041Y-89402389D01*
X239484328Y-89393580D01*
X239611811Y-89340775D01*
X239692737Y-89286702D01*
X239759414Y-89265824D01*
X239826794Y-89284308D01*
X239849309Y-89302123D01*
X241755681Y-91208495D01*
X241789166Y-91269818D01*
X241792000Y-91296176D01*
X241792000Y-91306493D01*
X241792000Y-91306495D01*
X241791999Y-91306495D01*
X241818918Y-91441822D01*
X241818921Y-91441832D01*
X241871721Y-91569304D01*
X241871728Y-91569317D01*
X241948385Y-91684041D01*
X241948388Y-91684045D01*
X242045954Y-91781611D01*
X242045958Y-91781614D01*
X242160682Y-91858271D01*
X242160695Y-91858278D01*
X242278054Y-91906889D01*
X242288172Y-91911080D01*
X242288176Y-91911080D01*
X242288177Y-91911081D01*
X242423504Y-91938000D01*
X242423507Y-91938000D01*
X242561495Y-91938000D01*
X242652541Y-91919889D01*
X242696828Y-91911080D01*
X242824311Y-91858275D01*
X242939042Y-91781614D01*
X243036614Y-91684042D01*
X243113275Y-91569311D01*
X243166080Y-91441828D01*
X243193000Y-91306493D01*
X243193000Y-91168507D01*
X243193000Y-91168504D01*
X243166081Y-91033177D01*
X243166080Y-91033176D01*
X243166080Y-91033172D01*
X243125638Y-90935535D01*
X243113278Y-90905695D01*
X243113271Y-90905682D01*
X243036614Y-90790958D01*
X243036611Y-90790954D01*
X242939045Y-90693388D01*
X242939041Y-90693385D01*
X242824317Y-90616728D01*
X242824304Y-90616721D01*
X242696832Y-90563921D01*
X242696822Y-90563918D01*
X242561495Y-90537000D01*
X242561493Y-90537000D01*
X242551176Y-90537000D01*
X242484137Y-90517315D01*
X242463495Y-90500681D01*
X240797995Y-88835181D01*
X240764510Y-88773858D01*
X240769494Y-88704166D01*
X240797995Y-88659819D01*
X241185337Y-88272477D01*
X241650500Y-87807314D01*
X241669356Y-87774655D01*
X241716392Y-87693186D01*
X241750500Y-87565892D01*
X241750500Y-86008676D01*
X241770185Y-85941637D01*
X241786819Y-85920995D01*
X243458314Y-84249500D01*
X245400500Y-82307314D01*
X245466392Y-82193186D01*
X245500500Y-82065892D01*
X245500500Y-81934107D01*
X245500500Y-81041518D01*
X245520185Y-80974479D01*
X245536823Y-80953833D01*
X245544114Y-80946542D01*
X245620775Y-80831811D01*
X245673580Y-80704328D01*
X245682389Y-80660041D01*
X245700500Y-80568995D01*
X245700500Y-80431004D01*
X245673581Y-80295677D01*
X245673580Y-80295676D01*
X245673580Y-80295672D01*
X245672933Y-80294111D01*
X245620778Y-80168195D01*
X245620771Y-80168182D01*
X245544114Y-80053458D01*
X245544111Y-80053454D01*
X245446545Y-79955888D01*
X245446541Y-79955885D01*
X245331817Y-79879228D01*
X245331804Y-79879221D01*
X245204332Y-79826421D01*
X245204322Y-79826418D01*
X245068995Y-79799500D01*
X245068993Y-79799500D01*
X244931007Y-79799500D01*
X244931005Y-79799500D01*
X244795677Y-79826418D01*
X244795667Y-79826421D01*
X244668195Y-79879221D01*
X244668182Y-79879228D01*
X244553458Y-79955885D01*
X244553454Y-79955888D01*
X244455888Y-80053454D01*
X244455885Y-80053458D01*
X244379228Y-80168182D01*
X244379221Y-80168195D01*
X244326421Y-80295667D01*
X244326418Y-80295677D01*
X244299500Y-80431004D01*
X244299500Y-80431007D01*
X244299500Y-80568993D01*
X244299500Y-80568995D01*
X244299499Y-80568995D01*
X244326418Y-80704322D01*
X244326421Y-80704332D01*
X244379221Y-80831804D01*
X244379228Y-80831817D01*
X244455885Y-80946541D01*
X244463177Y-80953833D01*
X244496665Y-81015155D01*
X244499500Y-81041518D01*
X244499500Y-81741324D01*
X244479815Y-81808363D01*
X244463181Y-81829005D01*
X240849502Y-85442683D01*
X240849500Y-85442686D01*
X240783608Y-85556812D01*
X240749500Y-85684108D01*
X240749500Y-87241324D01*
X240729815Y-87308363D01*
X240713181Y-87329005D01*
X239882279Y-88159906D01*
X239820956Y-88193391D01*
X239751264Y-88188407D01*
X239725707Y-88175327D01*
X239611817Y-88099228D01*
X239611804Y-88099221D01*
X239484332Y-88046421D01*
X239484322Y-88046418D01*
X239348995Y-88019500D01*
X239348993Y-88019500D01*
X239211007Y-88019500D01*
X239211005Y-88019500D01*
X239075677Y-88046418D01*
X239075667Y-88046421D01*
X238948195Y-88099221D01*
X238948182Y-88099228D01*
X238833458Y-88175885D01*
X238833454Y-88175888D01*
X238735888Y-88273454D01*
X238735885Y-88273458D01*
X238659228Y-88388182D01*
X238659221Y-88388195D01*
X238606421Y-88515667D01*
X238606418Y-88515677D01*
X238579500Y-88651004D01*
X238579500Y-88651007D01*
X238579500Y-88788993D01*
X238579500Y-88788995D01*
X238579499Y-88788995D01*
X213000500Y-88788995D01*
X213000500Y-88590313D01*
X212969196Y-88272477D01*
X212906889Y-87959240D01*
X212814180Y-87653619D01*
X212691961Y-87358556D01*
X212682211Y-87340316D01*
X212541415Y-87076905D01*
X212541413Y-87076903D01*
X212541409Y-87076894D01*
X212505049Y-87022477D01*
X212363987Y-86811361D01*
X212363980Y-86811351D01*
X212363975Y-86811344D01*
X212161366Y-86564465D01*
X212161365Y-86564464D01*
X212161361Y-86564459D01*
X211935540Y-86338638D01*
X211688661Y-86136029D01*
X211688638Y-86136012D01*
X211423122Y-85958601D01*
X211423094Y-85958584D01*
X211141451Y-85808042D01*
X211141446Y-85808040D01*
X210846382Y-85685820D01*
X210540754Y-85593109D01*
X210227521Y-85530803D01*
X210227522Y-85530803D01*
X209988141Y-85507227D01*
X209909687Y-85499500D01*
X209590313Y-85499500D01*
X209517822Y-85506639D01*
X209272477Y-85530803D01*
X208959245Y-85593109D01*
X208653617Y-85685820D01*
X208358553Y-85808040D01*
X208358548Y-85808042D01*
X208076905Y-85958584D01*
X208076877Y-85958601D01*
X207811361Y-86136012D01*
X207811338Y-86136029D01*
X207564459Y-86338638D01*
X207338638Y-86564459D01*
X207136029Y-86811338D01*
X207136012Y-86811361D01*
X206958601Y-87076877D01*
X206958584Y-87076905D01*
X206808043Y-87358547D01*
X206739061Y-87525082D01*
X206695219Y-87579485D01*
X206628925Y-87601549D01*
X206561226Y-87584269D01*
X206513616Y-87533132D01*
X206500500Y-87477632D01*
X206500500Y-82686234D01*
X206520185Y-82619198D01*
X206572989Y-82573443D01*
X206642147Y-82563499D01*
X206705703Y-82592524D01*
X206743477Y-82651302D01*
X206744275Y-82654143D01*
X206791394Y-82829993D01*
X206881714Y-83048045D01*
X206881719Y-83048056D01*
X206952677Y-83170957D01*
X206999727Y-83252450D01*
X206999729Y-83252453D01*
X206999730Y-83252454D01*
X207143406Y-83439697D01*
X207143412Y-83439704D01*
X207310295Y-83606587D01*
X207310301Y-83606592D01*
X207497550Y-83750273D01*
X207628918Y-83826118D01*
X207701943Y-83868280D01*
X207701948Y-83868282D01*
X207701951Y-83868284D01*
X207920007Y-83958606D01*
X208147986Y-84019693D01*
X208381989Y-84050500D01*
X208381996Y-84050500D01*
X208618004Y-84050500D01*
X208618011Y-84050500D01*
X208852014Y-84019693D01*
X209079993Y-83958606D01*
X209298049Y-83868284D01*
X209502450Y-83750273D01*
X209689699Y-83606592D01*
X209856592Y-83439699D01*
X210000273Y-83252450D01*
X210118284Y-83048049D01*
X210208606Y-82829993D01*
X210269693Y-82602014D01*
X210300500Y-82368011D01*
X210300500Y-82131989D01*
X210269693Y-81897986D01*
X210208606Y-81670007D01*
X210158483Y-81549001D01*
X210151015Y-81479535D01*
X210182290Y-81417055D01*
X210185334Y-81413900D01*
X210911417Y-80687819D01*
X210972740Y-80654334D01*
X210999098Y-80651500D01*
X211260269Y-80651500D01*
X211327308Y-80671185D01*
X211373063Y-80723989D01*
X211383007Y-80793147D01*
X211353982Y-80856703D01*
X211335755Y-80873876D01*
X211310302Y-80893406D01*
X211310295Y-80893412D01*
X211143412Y-81060295D01*
X211143406Y-81060302D01*
X210999730Y-81247545D01*
X210881719Y-81451943D01*
X210881714Y-81451954D01*
X210791394Y-81670006D01*
X210730306Y-81897989D01*
X210699501Y-82131979D01*
X210699500Y-82131995D01*
X210699500Y-82368004D01*
X210699501Y-82368020D01*
X210729057Y-82592524D01*
X210730307Y-82602014D01*
X210743514Y-82651302D01*
X210791394Y-82829993D01*
X210881714Y-83048045D01*
X210881719Y-83048056D01*
X210952677Y-83170957D01*
X210999727Y-83252450D01*
X210999729Y-83252453D01*
X210999730Y-83252454D01*
X211143406Y-83439697D01*
X211143412Y-83439704D01*
X211310295Y-83606587D01*
X211310301Y-83606592D01*
X211497550Y-83750273D01*
X211628918Y-83826118D01*
X211701943Y-83868280D01*
X211701948Y-83868282D01*
X211701951Y-83868284D01*
X211920007Y-83958606D01*
X212147986Y-84019693D01*
X212381989Y-84050500D01*
X212381996Y-84050500D01*
X212618004Y-84050500D01*
X212618011Y-84050500D01*
X212852014Y-84019693D01*
X213079993Y-83958606D01*
X213298049Y-83868284D01*
X213502450Y-83750273D01*
X213689699Y-83606592D01*
X213856592Y-83439699D01*
X214000273Y-83252450D01*
X214118284Y-83048049D01*
X214208606Y-82829993D01*
X214269693Y-82602014D01*
X214300500Y-82368011D01*
X214300500Y-82131989D01*
X214269693Y-81897986D01*
X214208606Y-81670007D01*
X214158483Y-81549001D01*
X214151015Y-81479535D01*
X214182290Y-81417055D01*
X214185304Y-81413930D01*
X214420418Y-81178816D01*
X214481740Y-81145334D01*
X214508098Y-81142500D01*
X222058230Y-81142500D01*
X222120369Y-81160746D01*
X222120819Y-81159905D01*
X222124859Y-81162064D01*
X222125269Y-81162185D01*
X222126087Y-81162721D01*
X222126190Y-81162776D01*
X222253667Y-81215578D01*
X222253672Y-81215580D01*
X222253676Y-81215580D01*
X222253677Y-81215581D01*
X222389004Y-81242500D01*
X222389007Y-81242500D01*
X222526995Y-81242500D01*
X222618041Y-81224389D01*
X222662328Y-81215580D01*
X222789811Y-81162775D01*
X222904542Y-81086114D01*
X223002114Y-80988542D01*
X223078775Y-80873811D01*
X223131580Y-80746328D01*
X223150443Y-80651500D01*
X223158500Y-80610995D01*
X223158500Y-80473004D01*
X223131581Y-80337677D01*
X223131580Y-80337676D01*
X223131580Y-80337672D01*
X223113537Y-80294111D01*
X223078778Y-80210195D01*
X223078771Y-80210182D01*
X223002114Y-80095458D01*
X223002111Y-80095454D01*
X222965626Y-80058969D01*
X222932141Y-79997646D01*
X222937125Y-79927954D01*
X222965624Y-79883609D01*
X226358506Y-76490728D01*
X226358511Y-76490724D01*
X226368714Y-76480520D01*
X226368716Y-76480520D01*
X226480520Y-76368716D01*
X226525547Y-76290727D01*
X226537813Y-76269482D01*
X226537814Y-76269480D01*
X226559574Y-76231790D01*
X226559573Y-76231790D01*
X226559577Y-76231785D01*
X226600500Y-76079057D01*
X226600500Y-75920943D01*
X226600500Y-72068995D01*
X231099499Y-72068995D01*
X231126418Y-72204322D01*
X231126421Y-72204332D01*
X231179221Y-72331804D01*
X231179228Y-72331817D01*
X231255885Y-72446541D01*
X231255888Y-72446545D01*
X231353454Y-72544111D01*
X231353458Y-72544114D01*
X231468182Y-72620771D01*
X231468195Y-72620778D01*
X231595667Y-72673578D01*
X231595672Y-72673580D01*
X231595676Y-72673580D01*
X231595677Y-72673581D01*
X231731004Y-72700500D01*
X231731007Y-72700500D01*
X231868995Y-72700500D01*
X231967005Y-72681004D01*
X232004328Y-72673580D01*
X232131811Y-72620775D01*
X232246542Y-72544114D01*
X232344114Y-72446542D01*
X232383553Y-72387516D01*
X232422398Y-72329383D01*
X232476010Y-72284578D01*
X232545335Y-72275871D01*
X232608363Y-72306026D01*
X232645082Y-72365469D01*
X232649500Y-72398274D01*
X232649500Y-77413330D01*
X232649499Y-77413348D01*
X232649499Y-77579054D01*
X232649498Y-77579054D01*
X232649499Y-77579057D01*
X232690423Y-77731785D01*
X232690424Y-77731786D01*
X232705606Y-77758084D01*
X232705607Y-77758085D01*
X232769475Y-77868709D01*
X232769481Y-77868717D01*
X232888349Y-77987585D01*
X232888355Y-77987590D01*
X234792702Y-79891938D01*
X234823735Y-79948771D01*
X234824650Y-79948494D01*
X234825982Y-79952887D01*
X234826187Y-79953261D01*
X234826386Y-79954215D01*
X234826420Y-79954330D01*
X234879221Y-80081804D01*
X234879228Y-80081817D01*
X234955885Y-80196541D01*
X234955888Y-80196545D01*
X235053454Y-80294111D01*
X235053458Y-80294114D01*
X235168182Y-80370771D01*
X235168195Y-80370778D01*
X235295667Y-80423578D01*
X235295672Y-80423580D01*
X235295676Y-80423580D01*
X235295677Y-80423581D01*
X235431004Y-80450500D01*
X235431007Y-80450500D01*
X235568995Y-80450500D01*
X235667005Y-80431004D01*
X235704328Y-80423580D01*
X235831811Y-80370775D01*
X235946542Y-80294114D01*
X236044114Y-80196542D01*
X236120775Y-80081811D01*
X236173580Y-79954328D01*
X236187647Y-79883607D01*
X236200500Y-79818995D01*
X236200500Y-79681004D01*
X236173581Y-79545677D01*
X236173580Y-79545676D01*
X236173580Y-79545672D01*
X236151111Y-79491426D01*
X236120778Y-79418195D01*
X236120771Y-79418182D01*
X236040730Y-79298393D01*
X236042870Y-79296963D01*
X236019938Y-79242975D01*
X236031727Y-79174107D01*
X236077022Y-79124573D01*
X236076746Y-79124160D01*
X236078427Y-79123036D01*
X236078877Y-79122545D01*
X236080810Y-79121444D01*
X236102196Y-79107153D01*
X236196542Y-79044114D01*
X236294114Y-78946542D01*
X236370775Y-78831811D01*
X236423580Y-78704328D01*
X236432389Y-78660041D01*
X236450500Y-78568995D01*
X236450500Y-78431004D01*
X236423581Y-78295677D01*
X236423580Y-78295676D01*
X236423580Y-78295672D01*
X236405848Y-78252863D01*
X236370778Y-78168195D01*
X236370771Y-78168182D01*
X236294114Y-78053458D01*
X236294111Y-78053454D01*
X236196545Y-77955888D01*
X236196541Y-77955885D01*
X236081817Y-77879228D01*
X236081804Y-77879221D01*
X235954330Y-77826420D01*
X235948494Y-77824650D01*
X235948922Y-77823236D01*
X235893515Y-77794252D01*
X235891938Y-77792702D01*
X235661417Y-77562181D01*
X235627932Y-77500858D01*
X235632916Y-77431166D01*
X235674788Y-77375233D01*
X235740252Y-77350816D01*
X235749098Y-77350500D01*
X238170943Y-77350500D01*
X240733331Y-77350500D01*
X240733347Y-77350501D01*
X240740943Y-77350501D01*
X240899054Y-77350501D01*
X240899057Y-77350501D01*
X241051785Y-77309577D01*
X241101904Y-77280639D01*
X241188716Y-77230520D01*
X241300520Y-77118716D01*
X241300520Y-77118714D01*
X241310728Y-77108507D01*
X241310730Y-77108504D01*
X244011938Y-74407295D01*
X244068782Y-74376256D01*
X244068506Y-74375346D01*
X244072877Y-74374020D01*
X244073259Y-74373812D01*
X244074234Y-74373608D01*
X244074325Y-74373580D01*
X244074328Y-74373580D01*
X244201811Y-74320775D01*
X244316542Y-74244114D01*
X244414114Y-74146542D01*
X244490775Y-74031811D01*
X244543580Y-73904328D01*
X244570500Y-73768993D01*
X244570500Y-73631007D01*
X244570500Y-73631004D01*
X244543581Y-73495677D01*
X244543580Y-73495676D01*
X244543580Y-73495672D01*
X244520731Y-73440510D01*
X244490778Y-73368195D01*
X244490771Y-73368182D01*
X244414114Y-73253458D01*
X244414111Y-73253454D01*
X244316545Y-73155888D01*
X244316541Y-73155885D01*
X244201817Y-73079228D01*
X244201804Y-73079221D01*
X244074332Y-73026421D01*
X244074322Y-73026418D01*
X243938995Y-72999500D01*
X243938993Y-72999500D01*
X243801007Y-72999500D01*
X243801005Y-72999500D01*
X243665677Y-73026418D01*
X243665667Y-73026421D01*
X243538195Y-73079221D01*
X243538182Y-73079228D01*
X243423458Y-73155885D01*
X243423454Y-73155888D01*
X243325888Y-73253454D01*
X243325885Y-73253458D01*
X243249228Y-73368182D01*
X243249221Y-73368195D01*
X243196420Y-73495669D01*
X243194650Y-73501506D01*
X243193236Y-73501077D01*
X243164248Y-73556488D01*
X243162702Y-73558061D01*
X241512181Y-75208583D01*
X241450858Y-75242068D01*
X241381166Y-75237084D01*
X241325233Y-75195212D01*
X241300816Y-75129748D01*
X241300500Y-75120902D01*
X241300500Y-73328526D01*
X241300500Y-73328525D01*
X241287971Y-73281768D01*
X241289632Y-73211920D01*
X241304642Y-73180784D01*
X241344447Y-73121213D01*
X241370770Y-73081819D01*
X241370771Y-73081816D01*
X241370775Y-73081811D01*
X241423580Y-72954328D01*
X241450500Y-72818993D01*
X241450500Y-72681007D01*
X241450500Y-72681004D01*
X241423581Y-72545677D01*
X241423580Y-72545676D01*
X241423580Y-72545672D01*
X241391483Y-72468182D01*
X241370778Y-72418195D01*
X241370771Y-72418182D01*
X241321398Y-72344290D01*
X241300520Y-72277612D01*
X241300500Y-72275399D01*
X241300500Y-71029386D01*
X241320185Y-70962347D01*
X241336815Y-70941709D01*
X242053671Y-70224852D01*
X242114992Y-70191369D01*
X242117012Y-70190947D01*
X242204328Y-70173580D01*
X242331811Y-70120775D01*
X242446542Y-70044114D01*
X242544114Y-69946542D01*
X242620775Y-69831811D01*
X242673580Y-69704328D01*
X242700500Y-69568993D01*
X242700500Y-69431007D01*
X242700500Y-69431004D01*
X242673581Y-69295677D01*
X242673580Y-69295676D01*
X242673580Y-69295672D01*
X242635746Y-69204332D01*
X242620778Y-69168195D01*
X242620771Y-69168182D01*
X242544114Y-69053458D01*
X242544111Y-69053454D01*
X242446545Y-68955888D01*
X242446541Y-68955885D01*
X242331817Y-68879228D01*
X242331804Y-68879221D01*
X242204332Y-68826421D01*
X242204322Y-68826418D01*
X242068995Y-68799500D01*
X242068993Y-68799500D01*
X241931007Y-68799500D01*
X241931005Y-68799500D01*
X241795677Y-68826418D01*
X241795667Y-68826421D01*
X241668195Y-68879221D01*
X241668182Y-68879228D01*
X241553458Y-68955885D01*
X241553454Y-68955888D01*
X241512181Y-68997162D01*
X241450858Y-69030647D01*
X241381166Y-69025663D01*
X241325233Y-68983791D01*
X241300816Y-68918327D01*
X241300500Y-68909481D01*
X241300500Y-66677527D01*
X241300500Y-66677525D01*
X241262984Y-66537515D01*
X241248821Y-66512984D01*
X241210461Y-66446542D01*
X241210214Y-66446114D01*
X241195984Y-66408305D01*
X241175808Y-66306873D01*
X241173580Y-66295672D01*
X241164429Y-66273580D01*
X241120778Y-66168195D01*
X241120771Y-66168182D01*
X241044114Y-66053458D01*
X241044111Y-66053454D01*
X240946545Y-65955888D01*
X240946541Y-65955885D01*
X240831817Y-65879228D01*
X240831804Y-65879221D01*
X240704332Y-65826421D01*
X240704322Y-65826418D01*
X240568995Y-65799500D01*
X240568993Y-65799500D01*
X240431007Y-65799500D01*
X240431005Y-65799500D01*
X240295677Y-65826418D01*
X240295667Y-65826421D01*
X240168195Y-65879221D01*
X240168182Y-65879228D01*
X240053458Y-65955885D01*
X240053454Y-65955888D01*
X239955888Y-66053454D01*
X239955885Y-66053458D01*
X239879228Y-66168182D01*
X239879221Y-66168195D01*
X239826421Y-66295667D01*
X239826418Y-66295677D01*
X239799500Y-66431004D01*
X239799500Y-66431007D01*
X239799500Y-66568993D01*
X239799500Y-66568995D01*
X239799499Y-66568995D01*
X239826418Y-66704322D01*
X239826421Y-66704332D01*
X239879221Y-66831804D01*
X239879228Y-66831817D01*
X239955885Y-66946541D01*
X239955888Y-66946545D01*
X240053455Y-67044112D01*
X240053458Y-67044114D01*
X240144391Y-67104874D01*
X240189196Y-67158484D01*
X240199500Y-67207975D01*
X240199500Y-69917655D01*
X240179815Y-69984694D01*
X240163181Y-70005336D01*
X239918491Y-70250025D01*
X239918489Y-70250028D01*
X239855292Y-70359491D01*
X239855291Y-70359492D01*
X239846016Y-70375555D01*
X239831159Y-70431004D01*
X239808500Y-70515567D01*
X239808500Y-70515569D01*
X239808500Y-71940959D01*
X239788815Y-72007998D01*
X239772181Y-72028640D01*
X239658491Y-72142329D01*
X239658489Y-72142331D01*
X239632698Y-72187003D01*
X239622695Y-72204332D01*
X239621798Y-72205885D01*
X239621797Y-72205886D01*
X239586017Y-72267858D01*
X239586016Y-72267859D01*
X239573917Y-72313015D01*
X239548500Y-72407871D01*
X239548500Y-72947180D01*
X239548500Y-73092128D01*
X239586016Y-73232139D01*
X239641664Y-73328526D01*
X239658489Y-73357667D01*
X239658491Y-73357670D01*
X240142332Y-73841511D01*
X240148778Y-73846457D01*
X240147036Y-73848727D01*
X240185703Y-73889263D01*
X240199500Y-73946107D01*
X240199500Y-75016418D01*
X240179815Y-75083457D01*
X240131849Y-75125019D01*
X240132562Y-75126353D01*
X240127186Y-75129226D01*
X240012462Y-75205882D01*
X240012454Y-75205888D01*
X239914888Y-75303454D01*
X239914885Y-75303458D01*
X239838228Y-75418182D01*
X239838221Y-75418195D01*
X239785421Y-75545667D01*
X239785418Y-75545677D01*
X239758500Y-75681004D01*
X239758500Y-75681007D01*
X239758500Y-75818993D01*
X239758500Y-75818995D01*
X239758499Y-75818995D01*
X239785418Y-75954322D01*
X239785420Y-75954328D01*
X239795245Y-75978047D01*
X239802714Y-76047516D01*
X239771439Y-76109996D01*
X239711350Y-76145648D01*
X239680684Y-76149500D01*
X235399770Y-76149500D01*
X235337630Y-76131253D01*
X235337181Y-76132095D01*
X235333140Y-76129935D01*
X235332731Y-76129815D01*
X235331912Y-76129278D01*
X235331809Y-76129223D01*
X235204332Y-76076421D01*
X235204322Y-76076418D01*
X235068995Y-76049500D01*
X235068993Y-76049500D01*
X234931007Y-76049500D01*
X234931005Y-76049500D01*
X234795677Y-76076418D01*
X234795667Y-76076421D01*
X234771950Y-76086245D01*
X234702480Y-76093712D01*
X234640002Y-76062436D01*
X234604351Y-76002346D01*
X234600500Y-75971683D01*
X234600500Y-71729581D01*
X234600500Y-71729579D01*
X234559577Y-71576852D01*
X234536024Y-71536057D01*
X234480524Y-71439926D01*
X234480521Y-71439922D01*
X234480520Y-71439920D01*
X234368716Y-71328116D01*
X234368715Y-71328115D01*
X234364385Y-71323785D01*
X234364374Y-71323775D01*
X233336819Y-70296220D01*
X233303334Y-70234897D01*
X233300500Y-70208539D01*
X233300500Y-67100097D01*
X233320185Y-67033058D01*
X233336819Y-67012416D01*
X233728464Y-66620771D01*
X234141939Y-66207295D01*
X234198772Y-66176262D01*
X234198495Y-66175349D01*
X234202883Y-66174017D01*
X234203260Y-66173812D01*
X234204222Y-66173611D01*
X234204317Y-66173582D01*
X234204328Y-66173580D01*
X234331811Y-66120775D01*
X234446542Y-66044114D01*
X234544114Y-65946542D01*
X234620775Y-65831811D01*
X234673580Y-65704328D01*
X234687666Y-65633513D01*
X234700500Y-65568995D01*
X234700500Y-65431004D01*
X234673581Y-65295677D01*
X234673580Y-65295676D01*
X234673580Y-65295672D01*
X234673455Y-65295371D01*
X234673437Y-65295203D01*
X234671812Y-65289845D01*
X234672827Y-65289536D01*
X234672253Y-65284196D01*
X234666862Y-65274335D01*
X234668583Y-65250083D01*
X234665983Y-65225906D01*
X234671013Y-65215853D01*
X234671810Y-65204641D01*
X234686369Y-65185170D01*
X234697253Y-65163424D01*
X234708008Y-65156232D01*
X234713652Y-65148686D01*
X234734330Y-65138634D01*
X234744620Y-65131755D01*
X234750171Y-65129680D01*
X234812485Y-65112984D01*
X234835840Y-65099500D01*
X234938015Y-65040510D01*
X236240510Y-63738015D01*
X236312984Y-63612485D01*
X236325967Y-63564031D01*
X236350500Y-63472475D01*
X236350500Y-62675466D01*
X243500000Y-62675466D01*
X243500000Y-62924533D01*
X243532508Y-63171463D01*
X243596973Y-63412049D01*
X243692283Y-63642148D01*
X243692288Y-63642159D01*
X243816813Y-63857841D01*
X243816819Y-63857849D01*
X243891400Y-63955045D01*
X244760689Y-63085756D01*
X244779668Y-63131574D01*
X244856274Y-63246224D01*
X244953776Y-63343726D01*
X245068426Y-63420332D01*
X245114242Y-63439309D01*
X244244953Y-64308598D01*
X244342150Y-64383180D01*
X244342158Y-64383186D01*
X244557840Y-64507711D01*
X244557851Y-64507716D01*
X244787950Y-64603026D01*
X245028536Y-64667491D01*
X245275466Y-64700000D01*
X245524534Y-64700000D01*
X245771463Y-64667491D01*
X246012049Y-64603026D01*
X246242148Y-64507716D01*
X246242159Y-64507711D01*
X246457855Y-64383178D01*
X246555045Y-64308600D01*
X246555045Y-64308597D01*
X245685757Y-63439309D01*
X245731574Y-63420332D01*
X245846224Y-63343726D01*
X245943726Y-63246224D01*
X246020332Y-63131574D01*
X246039309Y-63085757D01*
X246908597Y-63955045D01*
X246908600Y-63955045D01*
X246983178Y-63857855D01*
X247107711Y-63642159D01*
X247107716Y-63642148D01*
X247203026Y-63412049D01*
X247267491Y-63171463D01*
X247300000Y-62924533D01*
X247300000Y-62675466D01*
X247267491Y-62428536D01*
X247203026Y-62187950D01*
X247107716Y-61957851D01*
X247107711Y-61957840D01*
X246983186Y-61742158D01*
X246983180Y-61742150D01*
X246908598Y-61644953D01*
X246039309Y-62514242D01*
X246020332Y-62468426D01*
X245943726Y-62353776D01*
X245846224Y-62256274D01*
X245731574Y-62179668D01*
X245685755Y-62160689D01*
X246555045Y-61291400D01*
X246457849Y-61216819D01*
X246457841Y-61216813D01*
X246242159Y-61092288D01*
X246242148Y-61092283D01*
X246012049Y-60996973D01*
X245771463Y-60932508D01*
X245524534Y-60900000D01*
X245275466Y-60900000D01*
X245028536Y-60932508D01*
X244787950Y-60996973D01*
X244557851Y-61092283D01*
X244557847Y-61092285D01*
X244342143Y-61216823D01*
X244244953Y-61291399D01*
X244244953Y-61291400D01*
X245114243Y-62160690D01*
X245068426Y-62179668D01*
X244953776Y-62256274D01*
X244856274Y-62353776D01*
X244779668Y-62468426D01*
X244760690Y-62514243D01*
X243891400Y-61644953D01*
X243891399Y-61644953D01*
X243816823Y-61742143D01*
X243692285Y-61957847D01*
X243692283Y-61957851D01*
X243596973Y-62187950D01*
X243532508Y-62428536D01*
X243500000Y-62675466D01*
X236350500Y-62675466D01*
X236350500Y-58074599D01*
X236370185Y-58007560D01*
X236371398Y-58005708D01*
X236420775Y-57931811D01*
X236473580Y-57804328D01*
X236500500Y-57668993D01*
X236500500Y-57531007D01*
X236500500Y-57531004D01*
X236473581Y-57395677D01*
X236473580Y-57395676D01*
X236473580Y-57395672D01*
X236423438Y-57274617D01*
X236420778Y-57268195D01*
X236420771Y-57268182D01*
X236344114Y-57153458D01*
X236344111Y-57153454D01*
X236246545Y-57055888D01*
X236246541Y-57055885D01*
X236131817Y-56979228D01*
X236131804Y-56979221D01*
X236004332Y-56926421D01*
X236004322Y-56926418D01*
X235868995Y-56899500D01*
X235868993Y-56899500D01*
X235731007Y-56899500D01*
X235731005Y-56899500D01*
X235595677Y-56926418D01*
X235595667Y-56926421D01*
X235468195Y-56979221D01*
X235468182Y-56979228D01*
X235353458Y-57055885D01*
X235353454Y-57055888D01*
X235255888Y-57153454D01*
X235255885Y-57153458D01*
X235179228Y-57268182D01*
X235179221Y-57268195D01*
X235126421Y-57395667D01*
X235126418Y-57395677D01*
X235099500Y-57531004D01*
X235099500Y-57531007D01*
X235099500Y-57668993D01*
X235099500Y-57668995D01*
X235099499Y-57668995D01*
X235126418Y-57804322D01*
X235126421Y-57804332D01*
X235179222Y-57931806D01*
X235179223Y-57931807D01*
X235179225Y-57931811D01*
X235228602Y-58005708D01*
X235249480Y-58072385D01*
X235249500Y-58074599D01*
X235249500Y-63120613D01*
X235229815Y-63187652D01*
X235213181Y-63208294D01*
X234408294Y-64013181D01*
X234346971Y-64046666D01*
X234320613Y-64049500D01*
X234272475Y-64049500D01*
X233906871Y-64049500D01*
X233801863Y-64077637D01*
X233766860Y-64087016D01*
X233641332Y-64159489D01*
X233641329Y-64159491D01*
X231759491Y-66041329D01*
X231759489Y-66041332D01*
X231707253Y-66131810D01*
X231707252Y-66131811D01*
X231687017Y-66166858D01*
X231687016Y-66166859D01*
X231672569Y-66220778D01*
X231649500Y-66306871D01*
X231649500Y-66306873D01*
X231649500Y-70120613D01*
X231629815Y-70187652D01*
X231613181Y-70208294D01*
X231359491Y-70461983D01*
X231359489Y-70461986D01*
X231297710Y-70568993D01*
X231297709Y-70568994D01*
X231287016Y-70587513D01*
X231268258Y-70657520D01*
X231249500Y-70727525D01*
X231249500Y-70727527D01*
X231249500Y-71525399D01*
X231229815Y-71592438D01*
X231228602Y-71594290D01*
X231179228Y-71668182D01*
X231179221Y-71668195D01*
X231126421Y-71795667D01*
X231126418Y-71795677D01*
X231099500Y-71931004D01*
X231099500Y-71931007D01*
X231099500Y-72068993D01*
X231099500Y-72068995D01*
X231099499Y-72068995D01*
X226600500Y-72068995D01*
X226600500Y-71373500D01*
X226620185Y-71306461D01*
X226672989Y-71260706D01*
X226724500Y-71249500D01*
X227764331Y-71249500D01*
X227764347Y-71249501D01*
X227771943Y-71249501D01*
X227930054Y-71249501D01*
X227930057Y-71249501D01*
X228082785Y-71208577D01*
X228093643Y-71202308D01*
X228131453Y-71188075D01*
X228204328Y-71173580D01*
X228331811Y-71120775D01*
X228446542Y-71044114D01*
X228544114Y-70946542D01*
X228620775Y-70831811D01*
X228673580Y-70704328D01*
X228700500Y-70568993D01*
X228700500Y-70431007D01*
X228700500Y-70431004D01*
X228673581Y-70295677D01*
X228673580Y-70295676D01*
X228673580Y-70295672D01*
X228654674Y-70250028D01*
X228620778Y-70168195D01*
X228620771Y-70168182D01*
X228544114Y-70053458D01*
X228544111Y-70053454D01*
X228446545Y-69955888D01*
X228446541Y-69955885D01*
X228331817Y-69879228D01*
X228331804Y-69879221D01*
X228204332Y-69826421D01*
X228204322Y-69826418D01*
X228068995Y-69799500D01*
X228068993Y-69799500D01*
X227931007Y-69799500D01*
X227931005Y-69799500D01*
X227795677Y-69826418D01*
X227795667Y-69826421D01*
X227668195Y-69879221D01*
X227668182Y-69879228D01*
X227553459Y-69955884D01*
X227533333Y-69976011D01*
X227497161Y-70012182D01*
X227435841Y-70045666D01*
X227409482Y-70048500D01*
X227075500Y-70048500D01*
X227008461Y-70028815D01*
X226962706Y-69976011D01*
X226951500Y-69924500D01*
X226951500Y-68449096D01*
X226971185Y-68382057D01*
X226987814Y-68361420D01*
X231108506Y-64240727D01*
X231108511Y-64240724D01*
X231118714Y-64230520D01*
X231118716Y-64230520D01*
X231230520Y-64118716D01*
X231309577Y-63981784D01*
X231339534Y-63869981D01*
X231350500Y-63829058D01*
X231350500Y-63670943D01*
X231350500Y-61174566D01*
X231370185Y-61107527D01*
X231405611Y-61071463D01*
X231410511Y-61068189D01*
X231446542Y-61044114D01*
X231544114Y-60946542D01*
X231620775Y-60831811D01*
X231621915Y-60829060D01*
X231641028Y-60782916D01*
X231673580Y-60704328D01*
X231700500Y-60568993D01*
X231700500Y-60431007D01*
X231700500Y-60431004D01*
X231673581Y-60295677D01*
X231673580Y-60295676D01*
X231673580Y-60295672D01*
X231673578Y-60295667D01*
X231620778Y-60168195D01*
X231620771Y-60168182D01*
X231544114Y-60053458D01*
X231544111Y-60053454D01*
X231446545Y-59955888D01*
X231446541Y-59955885D01*
X231331817Y-59879228D01*
X231331804Y-59879221D01*
X231204332Y-59826421D01*
X231204322Y-59826418D01*
X231068995Y-59799500D01*
X231068993Y-59799500D01*
X230931007Y-59799500D01*
X230931005Y-59799500D01*
X230795677Y-59826418D01*
X230795667Y-59826421D01*
X230668195Y-59879221D01*
X230668182Y-59879228D01*
X230553458Y-59955885D01*
X230553454Y-59955888D01*
X230455888Y-60053454D01*
X230455885Y-60053458D01*
X230379228Y-60168182D01*
X230379221Y-60168195D01*
X230326421Y-60295667D01*
X230324653Y-60301498D01*
X230323721Y-60301215D01*
X230305091Y-60343606D01*
X230299452Y-60351310D01*
X230269480Y-60381284D01*
X230242783Y-60427525D01*
X230239430Y-60433332D01*
X230239426Y-60433338D01*
X230201228Y-60499500D01*
X230190423Y-60518215D01*
X230149499Y-60670943D01*
X230149499Y-60670945D01*
X230149499Y-60839046D01*
X230149500Y-60839059D01*
X230149500Y-63449902D01*
X230129815Y-63516941D01*
X230113181Y-63537583D01*
X228908391Y-64742372D01*
X228847068Y-64775857D01*
X228777376Y-64770873D01*
X228733029Y-64742372D01*
X228696545Y-64705888D01*
X228696541Y-64705885D01*
X228581817Y-64629228D01*
X228581804Y-64629221D01*
X228454330Y-64576420D01*
X228448494Y-64574650D01*
X228448921Y-64573239D01*
X228393502Y-64544240D01*
X228391936Y-64542701D01*
X226918718Y-63069482D01*
X226900558Y-63058997D01*
X226874879Y-63039292D01*
X226870545Y-63034958D01*
X226870541Y-63034955D01*
X226755817Y-62958298D01*
X226755804Y-62958291D01*
X226628332Y-62905491D01*
X226628322Y-62905488D01*
X226492995Y-62878570D01*
X226492993Y-62878570D01*
X226355007Y-62878570D01*
X226355005Y-62878570D01*
X226219677Y-62905488D01*
X226219667Y-62905491D01*
X226092195Y-62958291D01*
X226092182Y-62958298D01*
X225977458Y-63034955D01*
X225977454Y-63034958D01*
X225879888Y-63132524D01*
X225879885Y-63132528D01*
X225803228Y-63247252D01*
X225803221Y-63247265D01*
X225750421Y-63374737D01*
X225750418Y-63374747D01*
X225723500Y-63510074D01*
X225723500Y-63510077D01*
X225723500Y-63648063D01*
X225723500Y-63648065D01*
X225723499Y-63648065D01*
X225750418Y-63783392D01*
X225750421Y-63783402D01*
X225803221Y-63910874D01*
X225803228Y-63910887D01*
X225879885Y-64025611D01*
X225879888Y-64025615D01*
X225977454Y-64123181D01*
X225977458Y-64123184D01*
X226092182Y-64199841D01*
X226092195Y-64199848D01*
X226190880Y-64240724D01*
X226219672Y-64252650D01*
X226219676Y-64252650D01*
X226219677Y-64252651D01*
X226225869Y-64253883D01*
X226287780Y-64286268D01*
X226322354Y-64346984D01*
X226318614Y-64416753D01*
X226277747Y-64473425D01*
X226212729Y-64499006D01*
X226201677Y-64499500D01*
X226131005Y-64499500D01*
X225995677Y-64526418D01*
X225995667Y-64526421D01*
X225868190Y-64579223D01*
X225862819Y-64582095D01*
X225862123Y-64580794D01*
X225802438Y-64599480D01*
X225800230Y-64599500D01*
X223920940Y-64599500D01*
X223880019Y-64610464D01*
X223880019Y-64610465D01*
X223824117Y-64625444D01*
X223768215Y-64640423D01*
X223636499Y-64716469D01*
X223568599Y-64732941D01*
X223502572Y-64710088D01*
X223459382Y-64655166D01*
X223450500Y-64609081D01*
X223450500Y-62791518D01*
X223470185Y-62724479D01*
X223486814Y-62703841D01*
X223544114Y-62646542D01*
X223620775Y-62531811D01*
X223673580Y-62404328D01*
X223683251Y-62355708D01*
X223700500Y-62268995D01*
X223700500Y-62131004D01*
X223673581Y-61995677D01*
X223673580Y-61995676D01*
X223673580Y-61995672D01*
X223657914Y-61957851D01*
X223620778Y-61868195D01*
X223620771Y-61868182D01*
X223544114Y-61753458D01*
X223544111Y-61753454D01*
X223446545Y-61655888D01*
X223446541Y-61655885D01*
X223331817Y-61579228D01*
X223331804Y-61579221D01*
X223204332Y-61526421D01*
X223204322Y-61526418D01*
X223068995Y-61499500D01*
X223068993Y-61499500D01*
X222931007Y-61499500D01*
X222931005Y-61499500D01*
X222795677Y-61526418D01*
X222795667Y-61526421D01*
X222668195Y-61579221D01*
X222668182Y-61579228D01*
X222553458Y-61655885D01*
X222553454Y-61655888D01*
X222455888Y-61753454D01*
X222455885Y-61753458D01*
X222379228Y-61868182D01*
X222379221Y-61868195D01*
X222326421Y-61995667D01*
X222326418Y-61995677D01*
X222299500Y-62131004D01*
X222299500Y-62131007D01*
X222299500Y-62268993D01*
X222299500Y-62268995D01*
X222299499Y-62268995D01*
X222326418Y-62404322D01*
X222326420Y-62404328D01*
X222333899Y-62422385D01*
X222340061Y-62437260D01*
X222349500Y-62484713D01*
X222349500Y-65525399D01*
X222329815Y-65592438D01*
X222328602Y-65594290D01*
X222279228Y-65668182D01*
X222279221Y-65668195D01*
X222226421Y-65795667D01*
X222226418Y-65795677D01*
X222199500Y-65931004D01*
X222199500Y-65931007D01*
X222199500Y-66068993D01*
X222199500Y-66068995D01*
X222199499Y-66068995D01*
X222226418Y-66204322D01*
X222226421Y-66204332D01*
X222279221Y-66331804D01*
X222279228Y-66331817D01*
X222355885Y-66446541D01*
X222355888Y-66446545D01*
X222453454Y-66544111D01*
X222453458Y-66544114D01*
X222568182Y-66620771D01*
X222568195Y-66620778D01*
X222695667Y-66673578D01*
X222695672Y-66673580D01*
X222695676Y-66673580D01*
X222695677Y-66673581D01*
X222831004Y-66700500D01*
X222875500Y-66700500D01*
X222942539Y-66720185D01*
X222988294Y-66772989D01*
X222999500Y-66824500D01*
X222999500Y-75128638D01*
X222979815Y-75195677D01*
X222963181Y-75216319D01*
X222297759Y-75881740D01*
X222236436Y-75915225D01*
X222166744Y-75910241D01*
X222122397Y-75881740D01*
X222090938Y-75850281D01*
X222090934Y-75850278D01*
X221976210Y-75773621D01*
X221976197Y-75773614D01*
X221848725Y-75720814D01*
X221848715Y-75720811D01*
X221713388Y-75693893D01*
X221713386Y-75693893D01*
X221575400Y-75693893D01*
X221575398Y-75693893D01*
X221440070Y-75720811D01*
X221440060Y-75720814D01*
X221312588Y-75773614D01*
X221312575Y-75773621D01*
X221197851Y-75850278D01*
X221197847Y-75850281D01*
X221100281Y-75947847D01*
X221100278Y-75947851D01*
X221023621Y-76062575D01*
X221023614Y-76062588D01*
X220970813Y-76190062D01*
X220970811Y-76190070D01*
X220963104Y-76228816D01*
X220930718Y-76290727D01*
X220929168Y-76292305D01*
X219308294Y-77913181D01*
X219246971Y-77946666D01*
X219220613Y-77949500D01*
X216403055Y-77949500D01*
X216336016Y-77929815D01*
X216315374Y-77913181D01*
X213720684Y-75318491D01*
X213720683Y-75318490D01*
X213595153Y-75246016D01*
X213595150Y-75246015D01*
X213561566Y-75237015D01*
X213561566Y-75237016D01*
X213508354Y-75222758D01*
X213455143Y-75208500D01*
X213455142Y-75208500D01*
X213438387Y-75208500D01*
X213371348Y-75188815D01*
X213350706Y-75172181D01*
X213124854Y-74946329D01*
X213091369Y-74885006D01*
X213090946Y-74882978D01*
X213073580Y-74795672D01*
X213055186Y-74751265D01*
X213020778Y-74668195D01*
X213020771Y-74668182D01*
X212944114Y-74553458D01*
X212944111Y-74553454D01*
X212846545Y-74455888D01*
X212846541Y-74455885D01*
X212731817Y-74379228D01*
X212731804Y-74379221D01*
X212604332Y-74326421D01*
X212604322Y-74326418D01*
X212468995Y-74299500D01*
X212468993Y-74299500D01*
X212331007Y-74299500D01*
X212331005Y-74299500D01*
X212195677Y-74326418D01*
X212195667Y-74326421D01*
X212068195Y-74379221D01*
X212068182Y-74379228D01*
X211953458Y-74455885D01*
X211953454Y-74455888D01*
X211855888Y-74553454D01*
X211855885Y-74553458D01*
X211779228Y-74668182D01*
X211779221Y-74668195D01*
X211726421Y-74795667D01*
X211726418Y-74795677D01*
X211699500Y-74931004D01*
X211699500Y-74931007D01*
X211699500Y-75068993D01*
X211699500Y-75068995D01*
X211699499Y-75068995D01*
X211726418Y-75204322D01*
X211726421Y-75204332D01*
X211779221Y-75331804D01*
X211779228Y-75331817D01*
X211829203Y-75406609D01*
X211850081Y-75473286D01*
X211831597Y-75540667D01*
X211779618Y-75587357D01*
X211726101Y-75599500D01*
X210636670Y-75599500D01*
X210636654Y-75599499D01*
X210629058Y-75599499D01*
X210470943Y-75599499D01*
X210330736Y-75637067D01*
X210318211Y-75640424D01*
X210181287Y-75719477D01*
X210181282Y-75719481D01*
X209336128Y-76564634D01*
X209274805Y-76598119D01*
X209205113Y-76593135D01*
X209200994Y-76591514D01*
X209079997Y-76541395D01*
X208890920Y-76490732D01*
X208852014Y-76480307D01*
X208852013Y-76480306D01*
X208852010Y-76480306D01*
X208618020Y-76449501D01*
X208618017Y-76449500D01*
X208618011Y-76449500D01*
X208381989Y-76449500D01*
X208381983Y-76449500D01*
X208381979Y-76449501D01*
X208147989Y-76480306D01*
X207920006Y-76541394D01*
X207701954Y-76631714D01*
X207701943Y-76631719D01*
X207497545Y-76749730D01*
X207310302Y-76893406D01*
X207310295Y-76893412D01*
X207143412Y-77060295D01*
X207143406Y-77060302D01*
X206999730Y-77247545D01*
X206881719Y-77451943D01*
X206881714Y-77451954D01*
X206791394Y-77670006D01*
X206744275Y-77845856D01*
X206707910Y-77905516D01*
X206645062Y-77936045D01*
X206575687Y-77927750D01*
X206521809Y-77883265D01*
X206500535Y-77816712D01*
X206500500Y-77813812D01*
X206500500Y-61990518D01*
X206520185Y-61923480D01*
X206572989Y-61877725D01*
X206642147Y-61867781D01*
X206705703Y-61896806D01*
X206712181Y-61902838D01*
X206753454Y-61944111D01*
X206753458Y-61944114D01*
X206868182Y-62020771D01*
X206868195Y-62020778D01*
X206995667Y-62073578D01*
X206995672Y-62073580D01*
X206995676Y-62073580D01*
X206995677Y-62073581D01*
X207131004Y-62100500D01*
X207270613Y-62100500D01*
X207337652Y-62120185D01*
X207358294Y-62136819D01*
X207759490Y-62538015D01*
X218431457Y-73209982D01*
X218455886Y-73246542D01*
X218553458Y-73344114D01*
X218590017Y-73368542D01*
X218661985Y-73440510D01*
X218787515Y-73512984D01*
X218927525Y-73550499D01*
X218927527Y-73550499D01*
X219072472Y-73550499D01*
X219072474Y-73550499D01*
X219212485Y-73512984D01*
X219338014Y-73440510D01*
X219401347Y-73377175D01*
X219420131Y-73361760D01*
X219446542Y-73344114D01*
X219544114Y-73246542D01*
X219620775Y-73131811D01*
X219673580Y-73004328D01*
X219700500Y-72868993D01*
X219700500Y-72731007D01*
X219700500Y-72731004D01*
X219673581Y-72595677D01*
X219673580Y-72595676D01*
X219673580Y-72595672D01*
X219673578Y-72595667D01*
X219620778Y-72468195D01*
X219620771Y-72468182D01*
X219544114Y-72353458D01*
X219544111Y-72353454D01*
X219446545Y-72255888D01*
X219446541Y-72255885D01*
X219341430Y-72185651D01*
X219296625Y-72132038D01*
X219287918Y-72062713D01*
X219295760Y-72035096D01*
X219298434Y-72028640D01*
X219333200Y-71944708D01*
X219360120Y-71809373D01*
X219360120Y-71671387D01*
X219360120Y-71671384D01*
X219333201Y-71536057D01*
X219333200Y-71536056D01*
X219333200Y-71536052D01*
X219333198Y-71536047D01*
X219280398Y-71408575D01*
X219280391Y-71408562D01*
X219203734Y-71293838D01*
X219203731Y-71293834D01*
X219106165Y-71196268D01*
X219106161Y-71196265D01*
X218991437Y-71119608D01*
X218991424Y-71119601D01*
X218863952Y-71066801D01*
X218863942Y-71066798D01*
X218728615Y-71039880D01*
X218728613Y-71039880D01*
X218590627Y-71039880D01*
X218590622Y-71039880D01*
X218472746Y-71063327D01*
X218403154Y-71057100D01*
X218360874Y-71029391D01*
X210938563Y-63607079D01*
X210859009Y-63527525D01*
X216849500Y-63527525D01*
X216849500Y-66072474D01*
X216874790Y-66166860D01*
X216887014Y-66212480D01*
X216887016Y-66212485D01*
X216935046Y-66295677D01*
X216959489Y-66338013D01*
X216959491Y-66338016D01*
X219675144Y-69053668D01*
X219708629Y-69114991D01*
X219709080Y-69117157D01*
X219726418Y-69204322D01*
X219726421Y-69204332D01*
X219779221Y-69331804D01*
X219779228Y-69331817D01*
X219855885Y-69446541D01*
X219855888Y-69446545D01*
X219953454Y-69544111D01*
X219953458Y-69544114D01*
X220068182Y-69620771D01*
X220068195Y-69620778D01*
X220195667Y-69673578D01*
X220195672Y-69673580D01*
X220195676Y-69673580D01*
X220195677Y-69673581D01*
X220331004Y-69700500D01*
X220331007Y-69700500D01*
X220468995Y-69700500D01*
X220560041Y-69682389D01*
X220604328Y-69673580D01*
X220731811Y-69620775D01*
X220846542Y-69544114D01*
X220944114Y-69446542D01*
X221020775Y-69331811D01*
X221073580Y-69204328D01*
X221090920Y-69117157D01*
X221100500Y-69068995D01*
X221100500Y-68931004D01*
X221073581Y-68795677D01*
X221073580Y-68795676D01*
X221073580Y-68795672D01*
X221073578Y-68795667D01*
X221020778Y-68668195D01*
X221020771Y-68668182D01*
X220944114Y-68553458D01*
X220944111Y-68553454D01*
X220846545Y-68455888D01*
X220846541Y-68455885D01*
X220731817Y-68379228D01*
X220731804Y-68379221D01*
X220604332Y-68326421D01*
X220604322Y-68326418D01*
X220517157Y-68309080D01*
X220455246Y-68276695D01*
X220453668Y-68275144D01*
X217986819Y-65808294D01*
X217953334Y-65746971D01*
X217950500Y-65720613D01*
X217950500Y-63879387D01*
X217959143Y-63849950D01*
X217965667Y-63819961D01*
X217969422Y-63814943D01*
X217970185Y-63812348D01*
X217986815Y-63791709D01*
X218053671Y-63724852D01*
X218114992Y-63691369D01*
X218117012Y-63690947D01*
X218204328Y-63673580D01*
X218278049Y-63643043D01*
X218347516Y-63635575D01*
X218409995Y-63666850D01*
X218445648Y-63726938D01*
X218449500Y-63757605D01*
X218449500Y-65072475D01*
X218475147Y-65168189D01*
X218487016Y-65212485D01*
X218559297Y-65337680D01*
X218559489Y-65338013D01*
X218559491Y-65338016D01*
X218875144Y-65653669D01*
X218908629Y-65714992D01*
X218909080Y-65717158D01*
X218926418Y-65804322D01*
X218926421Y-65804332D01*
X218979221Y-65931804D01*
X218979228Y-65931817D01*
X219055885Y-66046541D01*
X219055888Y-66046545D01*
X219153454Y-66144111D01*
X219153458Y-66144114D01*
X219268182Y-66220771D01*
X219268195Y-66220778D01*
X219395667Y-66273578D01*
X219395672Y-66273580D01*
X219395676Y-66273580D01*
X219395677Y-66273581D01*
X219531004Y-66300500D01*
X219531007Y-66300500D01*
X219668995Y-66300500D01*
X219760041Y-66282389D01*
X219804328Y-66273580D01*
X219931811Y-66220775D01*
X220046542Y-66144114D01*
X220144114Y-66046542D01*
X220220775Y-65931811D01*
X220253955Y-65851705D01*
X220262863Y-65840651D01*
X220267508Y-65827233D01*
X220284350Y-65813987D01*
X220297794Y-65797305D01*
X220311266Y-65792820D01*
X220322429Y-65784042D01*
X220343758Y-65782005D01*
X220364087Y-65775239D01*
X220377846Y-65778750D01*
X220391982Y-65777401D01*
X220411024Y-65787218D01*
X220431787Y-65792517D01*
X220442673Y-65803534D01*
X220454085Y-65809417D01*
X220475902Y-65837160D01*
X220492006Y-65865053D01*
X220506236Y-65902861D01*
X220526418Y-66004322D01*
X220526421Y-66004332D01*
X220579221Y-66131804D01*
X220579228Y-66131817D01*
X220655885Y-66246541D01*
X220655888Y-66246545D01*
X220753454Y-66344111D01*
X220753458Y-66344114D01*
X220868182Y-66420771D01*
X220868195Y-66420778D01*
X220995667Y-66473578D01*
X220995672Y-66473580D01*
X220995676Y-66473580D01*
X220995677Y-66473581D01*
X221131004Y-66500500D01*
X221131007Y-66500500D01*
X221268995Y-66500500D01*
X221360041Y-66482389D01*
X221404328Y-66473580D01*
X221531811Y-66420775D01*
X221646542Y-66344114D01*
X221744114Y-66246542D01*
X221820775Y-66131811D01*
X221873580Y-66004328D01*
X221887890Y-65932386D01*
X221900500Y-65868995D01*
X221900500Y-65731004D01*
X221873581Y-65595677D01*
X221873580Y-65595676D01*
X221873580Y-65595672D01*
X221873008Y-65594290D01*
X221820778Y-65468195D01*
X221820771Y-65468182D01*
X221744114Y-65353458D01*
X221744111Y-65353454D01*
X221646545Y-65255888D01*
X221646541Y-65255885D01*
X221545609Y-65188444D01*
X221500804Y-65134832D01*
X221490500Y-65085342D01*
X221490500Y-62424599D01*
X221510185Y-62357560D01*
X221511398Y-62355708D01*
X221512689Y-62353776D01*
X221560775Y-62281811D01*
X221613580Y-62154328D01*
X221640146Y-62020775D01*
X221640500Y-62018995D01*
X221640500Y-61881004D01*
X221613581Y-61745677D01*
X221613580Y-61745676D01*
X221613580Y-61745672D01*
X221613578Y-61745667D01*
X221560778Y-61618195D01*
X221560771Y-61618182D01*
X221484114Y-61503458D01*
X221484111Y-61503454D01*
X221386545Y-61405888D01*
X221386541Y-61405885D01*
X221271817Y-61329228D01*
X221271804Y-61329221D01*
X221144332Y-61276421D01*
X221144322Y-61276418D01*
X221008995Y-61249500D01*
X221008993Y-61249500D01*
X220871007Y-61249500D01*
X220871005Y-61249500D01*
X220735677Y-61276418D01*
X220735667Y-61276421D01*
X220608195Y-61329221D01*
X220608182Y-61329228D01*
X220493458Y-61405885D01*
X220493454Y-61405888D01*
X220395888Y-61503454D01*
X220395885Y-61503458D01*
X220319228Y-61618182D01*
X220319221Y-61618195D01*
X220266421Y-61745667D01*
X220266418Y-61745677D01*
X220239500Y-61881004D01*
X220239500Y-61881007D01*
X220239500Y-62018993D01*
X220239500Y-62018995D01*
X220239499Y-62018995D01*
X220266418Y-62154322D01*
X220266421Y-62154332D01*
X220319222Y-62281806D01*
X220319223Y-62281807D01*
X220319225Y-62281811D01*
X220367311Y-62353776D01*
X220368602Y-62355708D01*
X220389480Y-62422385D01*
X220389500Y-62424599D01*
X220389500Y-65111930D01*
X220369815Y-65178969D01*
X220317011Y-65224724D01*
X220247853Y-65234668D01*
X220184297Y-65205643D01*
X220162398Y-65180821D01*
X220144114Y-65153458D01*
X220144111Y-65153454D01*
X220046545Y-65055888D01*
X220046541Y-65055885D01*
X219931817Y-64979228D01*
X219931804Y-64979221D01*
X219804332Y-64926421D01*
X219804322Y-64926418D01*
X219717158Y-64909080D01*
X219700401Y-64900314D01*
X219681923Y-64896295D01*
X219656886Y-64877552D01*
X219655247Y-64876695D01*
X219653669Y-64875144D01*
X219586819Y-64808294D01*
X219553334Y-64746971D01*
X219550500Y-64720613D01*
X219550500Y-63274599D01*
X219570185Y-63207560D01*
X219571398Y-63205708D01*
X219620775Y-63131811D01*
X219673580Y-63004328D01*
X219700500Y-62868993D01*
X219700500Y-62731007D01*
X219700500Y-62731004D01*
X219673581Y-62595677D01*
X219673580Y-62595676D01*
X219673580Y-62595672D01*
X219673578Y-62595667D01*
X219620778Y-62468195D01*
X219620771Y-62468182D01*
X219544114Y-62353458D01*
X219544111Y-62353454D01*
X219446545Y-62255888D01*
X219446541Y-62255885D01*
X219331817Y-62179228D01*
X219331804Y-62179221D01*
X219204332Y-62126421D01*
X219204322Y-62126418D01*
X219068995Y-62099500D01*
X219068993Y-62099500D01*
X218931007Y-62099500D01*
X218931005Y-62099500D01*
X218795677Y-62126418D01*
X218795667Y-62126421D01*
X218668195Y-62179221D01*
X218668182Y-62179228D01*
X218553458Y-62255885D01*
X218459911Y-62349432D01*
X218398587Y-62382916D01*
X218328896Y-62377932D01*
X218324778Y-62376311D01*
X218204332Y-62326421D01*
X218204322Y-62326418D01*
X218068995Y-62299500D01*
X218068993Y-62299500D01*
X217931007Y-62299500D01*
X217931005Y-62299500D01*
X217795677Y-62326418D01*
X217795667Y-62326421D01*
X217668195Y-62379221D01*
X217668182Y-62379228D01*
X217553458Y-62455885D01*
X217553454Y-62455888D01*
X217455888Y-62553454D01*
X217455885Y-62553458D01*
X217379228Y-62668182D01*
X217379221Y-62668195D01*
X217326421Y-62795667D01*
X217326418Y-62795677D01*
X217309080Y-62882840D01*
X217276694Y-62944751D01*
X217275145Y-62946329D01*
X216959488Y-63261987D01*
X216959487Y-63261988D01*
X216890614Y-63381280D01*
X216890615Y-63381281D01*
X216887015Y-63387517D01*
X216849500Y-63527525D01*
X210859009Y-63527525D01*
X210010175Y-62678691D01*
X210010152Y-62678670D01*
X208891815Y-61560332D01*
X208858330Y-61499009D01*
X208863314Y-61429317D01*
X208864935Y-61425198D01*
X208873580Y-61404328D01*
X208882389Y-61360041D01*
X208900500Y-61268995D01*
X208900500Y-61131004D01*
X208873581Y-60995677D01*
X208873580Y-60995676D01*
X208873580Y-60995672D01*
X208873578Y-60995667D01*
X208820778Y-60868195D01*
X208820771Y-60868182D01*
X208744114Y-60753458D01*
X208744111Y-60753454D01*
X208646545Y-60655888D01*
X208646541Y-60655885D01*
X208531817Y-60579228D01*
X208531804Y-60579221D01*
X208404332Y-60526421D01*
X208404322Y-60526418D01*
X208268995Y-60499500D01*
X208268993Y-60499500D01*
X208131007Y-60499500D01*
X208131005Y-60499500D01*
X207995677Y-60526418D01*
X207995667Y-60526421D01*
X207868195Y-60579221D01*
X207868182Y-60579228D01*
X207753458Y-60655885D01*
X207659911Y-60749432D01*
X207598587Y-60782916D01*
X207528896Y-60777932D01*
X207524778Y-60776311D01*
X207404332Y-60726421D01*
X207404322Y-60726418D01*
X207268995Y-60699500D01*
X207268993Y-60699500D01*
X207131007Y-60699500D01*
X207131005Y-60699500D01*
X206995677Y-60726418D01*
X206995667Y-60726421D01*
X206868195Y-60779221D01*
X206868182Y-60779228D01*
X206753458Y-60855885D01*
X206753454Y-60855888D01*
X206712181Y-60897162D01*
X206650858Y-60930647D01*
X206581166Y-60925663D01*
X206525233Y-60883791D01*
X206500816Y-60818327D01*
X206500500Y-60809481D01*
X206500500Y-48568995D01*
X208549499Y-48568995D01*
X208576418Y-48704322D01*
X208576421Y-48704332D01*
X208629221Y-48831804D01*
X208629228Y-48831817D01*
X208705885Y-48946541D01*
X208705888Y-48946545D01*
X208803454Y-49044111D01*
X208803458Y-49044114D01*
X208918182Y-49120771D01*
X208918195Y-49120778D01*
X208999251Y-49154352D01*
X209045672Y-49173580D01*
X209045676Y-49173580D01*
X209045677Y-49173581D01*
X209181004Y-49200500D01*
X209182294Y-49200627D01*
X209182926Y-49200882D01*
X209186982Y-49201689D01*
X209186829Y-49202458D01*
X209247082Y-49226786D01*
X209257824Y-49236349D01*
X209733794Y-49712318D01*
X209767279Y-49773641D01*
X209762295Y-49843332D01*
X209733794Y-49887680D01*
X209408491Y-50212983D01*
X209408489Y-50212986D01*
X209351335Y-50311982D01*
X209351334Y-50311981D01*
X209336017Y-50338513D01*
X209336016Y-50338515D01*
X209298500Y-50478525D01*
X209298500Y-50478527D01*
X209298500Y-56521932D01*
X209299500Y-56537199D01*
X209299500Y-56668993D01*
X209299500Y-56668995D01*
X209299499Y-56668995D01*
X209326418Y-56804322D01*
X209326421Y-56804332D01*
X209379221Y-56931804D01*
X209379228Y-56931817D01*
X209455885Y-57046541D01*
X209455888Y-57046545D01*
X209553454Y-57144111D01*
X209553458Y-57144114D01*
X209668182Y-57220771D01*
X209668195Y-57220778D01*
X209782640Y-57268182D01*
X209795672Y-57273580D01*
X209795676Y-57273580D01*
X209795677Y-57273581D01*
X209931004Y-57300500D01*
X209931007Y-57300500D01*
X210068995Y-57300500D01*
X210160041Y-57282389D01*
X210204328Y-57273580D01*
X210331811Y-57220775D01*
X210446542Y-57144114D01*
X210544114Y-57046542D01*
X210620775Y-56931811D01*
X210673580Y-56804328D01*
X210700500Y-56668993D01*
X210700500Y-56531007D01*
X210700500Y-56531004D01*
X210673581Y-56395677D01*
X210673580Y-56395676D01*
X210673580Y-56395672D01*
X210673578Y-56395667D01*
X210620778Y-56268195D01*
X210620771Y-56268182D01*
X210544114Y-56153458D01*
X210544111Y-56153454D01*
X210446550Y-56055893D01*
X210446544Y-56055888D01*
X210446542Y-56055886D01*
X210446539Y-56055884D01*
X210444839Y-56054489D01*
X210444182Y-56053525D01*
X210442235Y-56051578D01*
X210442604Y-56051208D01*
X210405502Y-55996745D01*
X210399500Y-55958632D01*
X210399500Y-55822844D01*
X215915000Y-55822844D01*
X215921401Y-55882372D01*
X215921403Y-55882379D01*
X215971645Y-56017086D01*
X215971649Y-56017093D01*
X216057809Y-56132187D01*
X216057812Y-56132190D01*
X216172906Y-56218350D01*
X216172913Y-56218354D01*
X216307620Y-56268596D01*
X216307627Y-56268598D01*
X216367155Y-56274999D01*
X216367172Y-56275000D01*
X218615000Y-56275000D01*
X218615000Y-55703553D01*
X218614999Y-55703552D01*
X219115000Y-55703552D01*
X219115000Y-56275000D01*
X221362828Y-56275000D01*
X221362844Y-56274999D01*
X221422372Y-56268598D01*
X221422379Y-56268596D01*
X221557086Y-56218354D01*
X221557093Y-56218350D01*
X221672187Y-56132190D01*
X221672190Y-56132187D01*
X221758350Y-56017093D01*
X221758354Y-56017086D01*
X221808596Y-55882379D01*
X221808598Y-55882372D01*
X221814999Y-55822844D01*
X221815000Y-55822827D01*
X221815000Y-55185258D01*
X224799500Y-55185258D01*
X224799500Y-56414741D01*
X224814808Y-56531007D01*
X224829452Y-56642238D01*
X224888842Y-56863887D01*
X224976650Y-57075876D01*
X224976657Y-57075890D01*
X225091392Y-57274617D01*
X225231081Y-57456661D01*
X225231089Y-57456670D01*
X225393330Y-57618911D01*
X225393338Y-57618918D01*
X225575382Y-57758607D01*
X225575385Y-57758608D01*
X225575388Y-57758611D01*
X225774112Y-57873344D01*
X225774117Y-57873346D01*
X225774123Y-57873349D01*
X225865480Y-57911190D01*
X225986113Y-57961158D01*
X226207762Y-58020548D01*
X226435266Y-58050500D01*
X226435273Y-58050500D01*
X226664727Y-58050500D01*
X226664734Y-58050500D01*
X226892238Y-58020548D01*
X227113887Y-57961158D01*
X227325888Y-57873344D01*
X227524612Y-57758611D01*
X227706661Y-57618919D01*
X227706665Y-57618914D01*
X227706670Y-57618911D01*
X227868911Y-57456670D01*
X227868914Y-57456665D01*
X227868919Y-57456661D01*
X228008611Y-57274612D01*
X228123344Y-57075888D01*
X228211158Y-56863887D01*
X228270548Y-56642238D01*
X228300500Y-56414734D01*
X228300500Y-55185266D01*
X228300499Y-55185258D01*
X228999500Y-55185258D01*
X228999500Y-56414741D01*
X229014808Y-56531007D01*
X229029452Y-56642238D01*
X229088842Y-56863887D01*
X229176650Y-57075876D01*
X229176657Y-57075890D01*
X229291392Y-57274617D01*
X229431081Y-57456661D01*
X229431089Y-57456670D01*
X229593330Y-57618911D01*
X229593338Y-57618918D01*
X229775382Y-57758607D01*
X229775385Y-57758608D01*
X229775388Y-57758611D01*
X229974112Y-57873344D01*
X229974117Y-57873346D01*
X229974123Y-57873349D01*
X230065480Y-57911190D01*
X230186113Y-57961158D01*
X230407762Y-58020548D01*
X230635266Y-58050500D01*
X230635273Y-58050500D01*
X230864727Y-58050500D01*
X230864734Y-58050500D01*
X231092238Y-58020548D01*
X231313887Y-57961158D01*
X231525888Y-57873344D01*
X231724612Y-57758611D01*
X231906661Y-57618919D01*
X231906665Y-57618914D01*
X231906670Y-57618911D01*
X232068911Y-57456670D01*
X232068914Y-57456665D01*
X232068919Y-57456661D01*
X232208611Y-57274612D01*
X232323344Y-57075888D01*
X232411158Y-56863887D01*
X232470548Y-56642238D01*
X232500500Y-56414734D01*
X232500500Y-55185266D01*
X232470548Y-54957762D01*
X232411158Y-54736113D01*
X232361190Y-54615480D01*
X232323349Y-54524123D01*
X232323346Y-54524117D01*
X232323344Y-54524112D01*
X232208611Y-54325388D01*
X232208608Y-54325385D01*
X232208607Y-54325382D01*
X232068918Y-54143338D01*
X232068911Y-54143330D01*
X231906670Y-53981089D01*
X231906661Y-53981081D01*
X231724617Y-53841392D01*
X231525890Y-53726657D01*
X231525876Y-53726650D01*
X231313887Y-53638842D01*
X231244175Y-53620163D01*
X231092238Y-53579452D01*
X231054215Y-53574446D01*
X230864741Y-53549500D01*
X230864734Y-53549500D01*
X230635266Y-53549500D01*
X230635258Y-53549500D01*
X230418715Y-53578009D01*
X230407762Y-53579452D01*
X230317815Y-53603553D01*
X230186112Y-53638842D01*
X229974123Y-53726650D01*
X229974109Y-53726657D01*
X229775382Y-53841392D01*
X229593338Y-53981081D01*
X229431081Y-54143338D01*
X229291392Y-54325382D01*
X229176657Y-54524109D01*
X229176650Y-54524123D01*
X229088842Y-54736112D01*
X229029453Y-54957759D01*
X229029451Y-54957770D01*
X228999500Y-55185258D01*
X228300499Y-55185258D01*
X228270548Y-54957762D01*
X228211158Y-54736113D01*
X228161190Y-54615480D01*
X228123349Y-54524123D01*
X228123346Y-54524117D01*
X228123344Y-54524112D01*
X228008611Y-54325388D01*
X228008608Y-54325385D01*
X228008607Y-54325382D01*
X227868918Y-54143338D01*
X227868911Y-54143330D01*
X227706670Y-53981089D01*
X227706661Y-53981081D01*
X227524617Y-53841392D01*
X227325890Y-53726657D01*
X227325876Y-53726650D01*
X227113887Y-53638842D01*
X227044175Y-53620163D01*
X226892238Y-53579452D01*
X226854215Y-53574446D01*
X226664741Y-53549500D01*
X226664734Y-53549500D01*
X226435266Y-53549500D01*
X226435258Y-53549500D01*
X226218715Y-53578009D01*
X226207762Y-53579452D01*
X226117815Y-53603553D01*
X225986112Y-53638842D01*
X225774123Y-53726650D01*
X225774109Y-53726657D01*
X225575382Y-53841392D01*
X225393338Y-53981081D01*
X225231081Y-54143338D01*
X225091392Y-54325382D01*
X224976657Y-54524109D01*
X224976650Y-54524123D01*
X224888842Y-54736112D01*
X224829453Y-54957759D01*
X224829451Y-54957770D01*
X224799500Y-55185258D01*
X221815000Y-55185258D01*
X221815000Y-54550000D01*
X221568552Y-54550000D01*
X220991777Y-55126777D01*
X220421848Y-55696704D01*
X220360525Y-55730189D01*
X220290833Y-55725205D01*
X220246485Y-55696704D01*
X220165000Y-55615218D01*
X220164999Y-55615218D01*
X220083513Y-55696704D01*
X220022190Y-55730189D01*
X219952498Y-55725205D01*
X219908151Y-55696704D01*
X219515000Y-55303553D01*
X219115000Y-55703552D01*
X218614999Y-55703552D01*
X218215000Y-55303553D01*
X217821848Y-55696704D01*
X217760525Y-55730189D01*
X217690833Y-55725205D01*
X217646485Y-55696704D01*
X217565000Y-55615218D01*
X217564999Y-55615218D01*
X217483513Y-55696704D01*
X217422190Y-55730189D01*
X217352498Y-55725205D01*
X217308151Y-55696704D01*
X216738223Y-55126777D01*
X216597764Y-54986318D01*
X216531609Y-54920163D01*
X216765000Y-54920163D01*
X216765000Y-54979837D01*
X216787836Y-55034968D01*
X216830032Y-55077164D01*
X216885163Y-55100000D01*
X216944837Y-55100000D01*
X216999968Y-55077164D01*
X217042164Y-55034968D01*
X217065000Y-54979837D01*
X217065000Y-54950000D01*
X217268552Y-54950000D01*
X217565000Y-55246446D01*
X217565001Y-55246446D01*
X217861446Y-54950001D01*
X217861446Y-54950000D01*
X217831609Y-54920163D01*
X218065000Y-54920163D01*
X218065000Y-54979837D01*
X218087836Y-55034968D01*
X218130032Y-55077164D01*
X218185163Y-55100000D01*
X218244837Y-55100000D01*
X218299968Y-55077164D01*
X218342164Y-55034968D01*
X218365000Y-54979837D01*
X218365000Y-54950000D01*
X218568553Y-54950000D01*
X218614999Y-54996446D01*
X218615000Y-54996446D01*
X219115000Y-54996446D01*
X219161446Y-54950001D01*
X219161446Y-54949999D01*
X219131610Y-54920163D01*
X219365000Y-54920163D01*
X219365000Y-54979837D01*
X219387836Y-55034968D01*
X219430032Y-55077164D01*
X219485163Y-55100000D01*
X219544837Y-55100000D01*
X219599968Y-55077164D01*
X219642164Y-55034968D01*
X219665000Y-54979837D01*
X219665000Y-54950000D01*
X219868553Y-54950000D01*
X220165000Y-55246446D01*
X220165001Y-55246446D01*
X220461446Y-54950001D01*
X220461446Y-54950000D01*
X220431609Y-54920163D01*
X220665000Y-54920163D01*
X220665000Y-54979837D01*
X220687836Y-55034968D01*
X220730032Y-55077164D01*
X220785163Y-55100000D01*
X220844837Y-55100000D01*
X220899968Y-55077164D01*
X220942164Y-55034968D01*
X220965000Y-54979837D01*
X220965000Y-54920163D01*
X220942164Y-54865032D01*
X220899968Y-54822836D01*
X220844837Y-54800000D01*
X220785163Y-54800000D01*
X220730032Y-54822836D01*
X220687836Y-54865032D01*
X220665000Y-54920163D01*
X220431609Y-54920163D01*
X220178223Y-54666776D01*
X220178221Y-54666773D01*
X220165001Y-54653553D01*
X220165000Y-54653553D01*
X219868553Y-54950000D01*
X219665000Y-54950000D01*
X219665000Y-54920163D01*
X219642164Y-54865032D01*
X219599968Y-54822836D01*
X219544837Y-54800000D01*
X219485163Y-54800000D01*
X219430032Y-54822836D01*
X219387836Y-54865032D01*
X219365000Y-54920163D01*
X219131610Y-54920163D01*
X219115000Y-54903553D01*
X219115000Y-54996446D01*
X218615000Y-54996446D01*
X218615000Y-54903553D01*
X218568553Y-54950000D01*
X218365000Y-54950000D01*
X218365000Y-54920163D01*
X218342164Y-54865032D01*
X218299968Y-54822836D01*
X218244837Y-54800000D01*
X218185163Y-54800000D01*
X218130032Y-54822836D01*
X218087836Y-54865032D01*
X218065000Y-54920163D01*
X217831609Y-54920163D01*
X217578223Y-54666776D01*
X217578221Y-54666773D01*
X217565001Y-54653553D01*
X217565000Y-54653553D01*
X217268552Y-54950000D01*
X217065000Y-54950000D01*
X217065000Y-54920163D01*
X217042164Y-54865032D01*
X216999968Y-54822836D01*
X216944837Y-54800000D01*
X216885163Y-54800000D01*
X216830032Y-54822836D01*
X216787836Y-54865032D01*
X216765000Y-54920163D01*
X216531609Y-54920163D01*
X216278223Y-54666776D01*
X216161447Y-54550000D01*
X216868554Y-54550000D01*
X216915000Y-54596445D01*
X216961446Y-54550000D01*
X218168554Y-54550000D01*
X218215000Y-54596445D01*
X218261446Y-54550000D01*
X219468554Y-54550000D01*
X219515000Y-54596445D01*
X219561446Y-54550000D01*
X220768554Y-54550000D01*
X220815000Y-54596445D01*
X220861446Y-54550000D01*
X220768554Y-54550000D01*
X219561446Y-54550000D01*
X219468554Y-54550000D01*
X218261446Y-54550000D01*
X218168554Y-54550000D01*
X216961446Y-54550000D01*
X216868554Y-54550000D01*
X216161447Y-54550000D01*
X215915000Y-54550000D01*
X215915000Y-55822844D01*
X210399500Y-55822844D01*
X210399500Y-52777155D01*
X215915000Y-52777155D01*
X215915000Y-54050000D01*
X216161447Y-54050000D01*
X216161447Y-54049999D01*
X216868553Y-54049999D01*
X216868554Y-54050000D01*
X216961446Y-54050000D01*
X216961446Y-54049999D01*
X218168553Y-54049999D01*
X218168554Y-54050000D01*
X218261446Y-54050000D01*
X218261446Y-54049999D01*
X219468553Y-54049999D01*
X219468554Y-54050000D01*
X219561446Y-54050000D01*
X219561446Y-54049999D01*
X220768553Y-54049999D01*
X220768554Y-54050000D01*
X220861446Y-54050000D01*
X220861446Y-54049999D01*
X220815000Y-54003553D01*
X220768553Y-54049999D01*
X219561446Y-54049999D01*
X219515000Y-54003553D01*
X219468553Y-54049999D01*
X218261446Y-54049999D01*
X218215000Y-54003553D01*
X218168553Y-54049999D01*
X216961446Y-54049999D01*
X216915000Y-54003553D01*
X216868553Y-54049999D01*
X216161447Y-54049999D01*
X216278221Y-53933226D01*
X216591283Y-53620163D01*
X216765000Y-53620163D01*
X216765000Y-53679837D01*
X216787836Y-53734968D01*
X216830032Y-53777164D01*
X216885163Y-53800000D01*
X216944837Y-53800000D01*
X216999968Y-53777164D01*
X217042164Y-53734968D01*
X217065000Y-53679837D01*
X217065000Y-53650000D01*
X217268552Y-53650000D01*
X217565000Y-53946446D01*
X217565001Y-53946446D01*
X217861446Y-53650001D01*
X217861446Y-53649999D01*
X217831610Y-53620163D01*
X218065000Y-53620163D01*
X218065000Y-53679837D01*
X218087836Y-53734968D01*
X218130032Y-53777164D01*
X218185163Y-53800000D01*
X218244837Y-53800000D01*
X218299968Y-53777164D01*
X218342164Y-53734968D01*
X218365000Y-53679837D01*
X218365000Y-53650000D01*
X218568553Y-53650000D01*
X218614999Y-53696446D01*
X218615000Y-53696446D01*
X219115000Y-53696446D01*
X219161446Y-53650001D01*
X219161446Y-53649999D01*
X219131610Y-53620163D01*
X219365000Y-53620163D01*
X219365000Y-53679837D01*
X219387836Y-53734968D01*
X219430032Y-53777164D01*
X219485163Y-53800000D01*
X219544837Y-53800000D01*
X219599968Y-53777164D01*
X219642164Y-53734968D01*
X219665000Y-53679837D01*
X219665000Y-53650000D01*
X219868552Y-53650000D01*
X220165000Y-53946446D01*
X220165001Y-53946446D01*
X220461446Y-53650001D01*
X220461446Y-53649999D01*
X220431610Y-53620163D01*
X220665000Y-53620163D01*
X220665000Y-53679837D01*
X220687836Y-53734968D01*
X220730032Y-53777164D01*
X220785163Y-53800000D01*
X220844837Y-53800000D01*
X220899968Y-53777164D01*
X220942164Y-53734968D01*
X220965000Y-53679837D01*
X220965000Y-53620163D01*
X220942164Y-53565032D01*
X220899968Y-53522836D01*
X220844837Y-53500000D01*
X220785163Y-53500000D01*
X220730032Y-53522836D01*
X220687836Y-53565032D01*
X220665000Y-53620163D01*
X220431610Y-53620163D01*
X220165001Y-53353553D01*
X220165000Y-53353553D01*
X219868552Y-53650000D01*
X219665000Y-53650000D01*
X219665000Y-53620163D01*
X219642164Y-53565032D01*
X219599968Y-53522836D01*
X219544837Y-53500000D01*
X219485163Y-53500000D01*
X219430032Y-53522836D01*
X219387836Y-53565032D01*
X219365000Y-53620163D01*
X219131610Y-53620163D01*
X219115000Y-53603553D01*
X219115000Y-53696446D01*
X218615000Y-53696446D01*
X218615000Y-53603553D01*
X218568553Y-53650000D01*
X218365000Y-53650000D01*
X218365000Y-53620163D01*
X218342164Y-53565032D01*
X218299968Y-53522836D01*
X218244837Y-53500000D01*
X218185163Y-53500000D01*
X218130032Y-53522836D01*
X218087836Y-53565032D01*
X218065000Y-53620163D01*
X217831610Y-53620163D01*
X217565001Y-53353553D01*
X217565000Y-53353553D01*
X217268552Y-53650000D01*
X217065000Y-53650000D01*
X217065000Y-53620163D01*
X217042164Y-53565032D01*
X216999968Y-53522836D01*
X216944837Y-53500000D01*
X216885163Y-53500000D01*
X216830032Y-53522836D01*
X216787836Y-53565032D01*
X216765000Y-53620163D01*
X216591283Y-53620163D01*
X216700489Y-53510957D01*
X216738223Y-53473223D01*
X217308151Y-52903294D01*
X217369474Y-52869809D01*
X217439165Y-52874793D01*
X217483513Y-52903294D01*
X217564999Y-52984780D01*
X217646485Y-52903294D01*
X217707808Y-52869809D01*
X217777500Y-52874793D01*
X217821848Y-52903294D01*
X218215000Y-53296446D01*
X218215001Y-53296446D01*
X218614999Y-52896446D01*
X219115000Y-52896446D01*
X219514999Y-53296446D01*
X219515000Y-53296446D01*
X219908151Y-52903294D01*
X219969474Y-52869809D01*
X220039165Y-52874793D01*
X220083513Y-52903294D01*
X220164999Y-52984780D01*
X220246485Y-52903294D01*
X220307808Y-52869809D01*
X220377500Y-52874793D01*
X220421848Y-52903294D01*
X220991777Y-53473223D01*
X221568552Y-54049999D01*
X221568553Y-54050000D01*
X221815000Y-54050000D01*
X221815000Y-52777172D01*
X221814999Y-52777155D01*
X221808598Y-52717627D01*
X221808596Y-52717620D01*
X221758354Y-52582913D01*
X221758350Y-52582906D01*
X221672190Y-52467812D01*
X221672187Y-52467809D01*
X221557093Y-52381649D01*
X221557086Y-52381645D01*
X221422379Y-52331403D01*
X221422372Y-52331401D01*
X221362844Y-52325000D01*
X219115000Y-52325000D01*
X219115000Y-52896446D01*
X218614999Y-52896446D01*
X218615000Y-52896445D01*
X218615000Y-52325000D01*
X216367155Y-52325000D01*
X216307627Y-52331401D01*
X216307620Y-52331403D01*
X216172913Y-52381645D01*
X216172906Y-52381649D01*
X216057812Y-52467809D01*
X216057809Y-52467812D01*
X215971649Y-52582906D01*
X215971645Y-52582913D01*
X215921403Y-52717620D01*
X215921401Y-52717627D01*
X215915000Y-52777155D01*
X210399500Y-52777155D01*
X210399500Y-50830386D01*
X210419185Y-50763347D01*
X210435815Y-50742709D01*
X210653671Y-50524852D01*
X210714992Y-50491369D01*
X210717012Y-50490947D01*
X210804328Y-50473580D01*
X210931811Y-50420775D01*
X211046542Y-50344114D01*
X211144114Y-50246542D01*
X211220775Y-50131811D01*
X211273580Y-50004328D01*
X211300500Y-49868993D01*
X211300500Y-49731007D01*
X211300500Y-49731004D01*
X211273581Y-49595677D01*
X211273580Y-49595676D01*
X211273580Y-49595672D01*
X211234958Y-49502430D01*
X211220778Y-49468195D01*
X211220771Y-49468182D01*
X211144114Y-49353458D01*
X211144111Y-49353454D01*
X211046545Y-49255888D01*
X211046541Y-49255885D01*
X210931817Y-49179228D01*
X210931804Y-49179221D01*
X210804332Y-49126421D01*
X210804322Y-49126418D01*
X210717157Y-49109080D01*
X210655246Y-49076695D01*
X210653668Y-49075144D01*
X210348514Y-48769990D01*
X209962437Y-48383912D01*
X209928954Y-48322592D01*
X209928522Y-48320518D01*
X209923580Y-48295672D01*
X209876464Y-48181923D01*
X209870778Y-48168195D01*
X209870771Y-48168182D01*
X209794114Y-48053458D01*
X209794111Y-48053454D01*
X209754652Y-48013995D01*
X214644499Y-48013995D01*
X214671418Y-48149322D01*
X214671421Y-48149332D01*
X214724221Y-48276804D01*
X214724228Y-48276817D01*
X214800885Y-48391541D01*
X214800888Y-48391545D01*
X214898454Y-48489111D01*
X214898458Y-48489114D01*
X215013182Y-48565771D01*
X215013195Y-48565778D01*
X215129248Y-48613848D01*
X215140672Y-48618580D01*
X215227842Y-48635919D01*
X215289749Y-48668302D01*
X215291329Y-48669854D01*
X216719658Y-50098183D01*
X216753143Y-50159506D01*
X216748159Y-50229198D01*
X216746559Y-50233263D01*
X216741420Y-50245672D01*
X216741418Y-50245678D01*
X216714500Y-50381004D01*
X216714500Y-50381007D01*
X216714500Y-50518993D01*
X216714500Y-50518995D01*
X216714499Y-50518995D01*
X216741418Y-50654322D01*
X216741421Y-50654332D01*
X216794221Y-50781804D01*
X216794228Y-50781817D01*
X216870885Y-50896541D01*
X216870888Y-50896545D01*
X216968454Y-50994111D01*
X216968458Y-50994114D01*
X217083182Y-51070771D01*
X217083195Y-51070778D01*
X217210667Y-51123578D01*
X217210672Y-51123580D01*
X217210676Y-51123580D01*
X217210677Y-51123581D01*
X217346004Y-51150500D01*
X217346007Y-51150500D01*
X217483995Y-51150500D01*
X217575041Y-51132389D01*
X217619328Y-51123580D01*
X217746811Y-51070775D01*
X217820709Y-51021398D01*
X217887386Y-51000520D01*
X217889600Y-51000500D01*
X221440400Y-51000500D01*
X221507439Y-51020185D01*
X221509291Y-51021398D01*
X221583189Y-51070775D01*
X221583191Y-51070776D01*
X221583195Y-51070778D01*
X221710667Y-51123578D01*
X221710672Y-51123580D01*
X221710676Y-51123580D01*
X221710677Y-51123581D01*
X221846004Y-51150500D01*
X221846007Y-51150500D01*
X221983995Y-51150500D01*
X222075041Y-51132389D01*
X222119328Y-51123580D01*
X222246811Y-51070775D01*
X222361542Y-50994114D01*
X222459114Y-50896542D01*
X222535775Y-50781811D01*
X222588580Y-50654328D01*
X222589380Y-50650308D01*
X222621765Y-50588397D01*
X222682481Y-50553823D01*
X222710997Y-50550500D01*
X223757092Y-50550500D01*
X223757094Y-50550500D01*
X223757095Y-50550500D01*
X223897105Y-50512984D01*
X223918728Y-50500500D01*
X224022635Y-50440510D01*
X224503671Y-49959472D01*
X224520265Y-49950411D01*
X224533876Y-49937279D01*
X224563374Y-49926871D01*
X224564992Y-49925989D01*
X224566972Y-49925575D01*
X224651314Y-49908799D01*
X224720901Y-49915027D01*
X224776078Y-49957891D01*
X224799322Y-50023781D01*
X224799500Y-50030417D01*
X224799500Y-51965701D01*
X224802401Y-52002567D01*
X224802402Y-52002573D01*
X224848253Y-52160392D01*
X224848255Y-52160395D01*
X224848256Y-52160397D01*
X224868063Y-52193889D01*
X224931917Y-52301861D01*
X224931923Y-52301869D01*
X225048130Y-52418076D01*
X225048134Y-52418079D01*
X225048136Y-52418081D01*
X225189603Y-52501744D01*
X225189604Y-52501744D01*
X225189607Y-52501746D01*
X225347426Y-52547597D01*
X225347429Y-52547597D01*
X225347431Y-52547598D01*
X225384306Y-52550500D01*
X225384314Y-52550500D01*
X227715686Y-52550500D01*
X227715694Y-52550500D01*
X227752569Y-52547598D01*
X227752571Y-52547597D01*
X227752573Y-52547597D01*
X227910392Y-52501746D01*
X227910393Y-52501745D01*
X227910397Y-52501744D01*
X228051864Y-52418081D01*
X228168081Y-52301864D01*
X228251744Y-52160397D01*
X228251745Y-52160393D01*
X228251746Y-52160392D01*
X228297597Y-52002573D01*
X228297598Y-52002567D01*
X228300500Y-51965694D01*
X228300500Y-49678751D01*
X228900000Y-49678751D01*
X228900000Y-50050000D01*
X229882096Y-50050000D01*
X229850000Y-50211358D01*
X229850000Y-50388642D01*
X229882096Y-50550000D01*
X228900000Y-50550000D01*
X228900000Y-50921248D01*
X228900001Y-50921264D01*
X228931653Y-51161687D01*
X228994421Y-51395939D01*
X229087220Y-51619978D01*
X229087227Y-51619993D01*
X229208480Y-51830009D01*
X229356110Y-52022405D01*
X229356116Y-52022412D01*
X229527587Y-52193883D01*
X229527594Y-52193889D01*
X229719990Y-52341519D01*
X229930006Y-52462772D01*
X229930021Y-52462779D01*
X230154060Y-52555578D01*
X230388312Y-52618346D01*
X230500000Y-52633049D01*
X230500000Y-51167904D01*
X230661358Y-51200000D01*
X230838642Y-51200000D01*
X231000000Y-51167904D01*
X231000000Y-52633048D01*
X231111687Y-52618346D01*
X231345939Y-52555578D01*
X231569978Y-52462779D01*
X231569993Y-52462772D01*
X231780009Y-52341519D01*
X231972405Y-52193889D01*
X231972412Y-52193883D01*
X232143883Y-52022412D01*
X232143889Y-52022405D01*
X232291519Y-51830009D01*
X232412772Y-51619993D01*
X232412779Y-51619978D01*
X232505578Y-51395939D01*
X232568346Y-51161687D01*
X232599998Y-50921264D01*
X232600000Y-50921248D01*
X232600000Y-50550000D01*
X231617904Y-50550000D01*
X231650000Y-50388642D01*
X231650000Y-50211358D01*
X231617904Y-50050000D01*
X232600000Y-50050000D01*
X232600000Y-49678751D01*
X232599998Y-49678735D01*
X232568346Y-49438312D01*
X232505578Y-49204060D01*
X232412779Y-48980021D01*
X232412772Y-48980006D01*
X232291519Y-48769990D01*
X232143889Y-48577594D01*
X232143883Y-48577587D01*
X231972412Y-48406116D01*
X231972405Y-48406110D01*
X231780009Y-48258480D01*
X231569993Y-48137227D01*
X231569978Y-48137220D01*
X231345939Y-48044421D01*
X231111687Y-47981653D01*
X231000000Y-47966948D01*
X231000000Y-49432095D01*
X230838642Y-49400000D01*
X230661358Y-49400000D01*
X230500000Y-49432095D01*
X230500000Y-47966948D01*
X230499999Y-47966948D01*
X230388312Y-47981653D01*
X230154060Y-48044421D01*
X229930021Y-48137220D01*
X229930006Y-48137227D01*
X229719990Y-48258480D01*
X229527594Y-48406110D01*
X229527587Y-48406116D01*
X229356116Y-48577587D01*
X229356110Y-48577594D01*
X229208480Y-48769990D01*
X229087227Y-48980006D01*
X229087220Y-48980021D01*
X228994421Y-49204060D01*
X228931653Y-49438312D01*
X228900001Y-49678735D01*
X228900000Y-49678751D01*
X228300500Y-49678751D01*
X228300500Y-48634306D01*
X228297598Y-48597431D01*
X228291635Y-48576905D01*
X228251746Y-48439607D01*
X228251744Y-48439604D01*
X228251744Y-48439603D01*
X228168081Y-48298136D01*
X228168079Y-48298134D01*
X228168076Y-48298130D01*
X228051869Y-48181923D01*
X228051861Y-48181917D01*
X227910395Y-48098255D01*
X227910392Y-48098253D01*
X227752573Y-48052402D01*
X227752567Y-48052401D01*
X227715701Y-48049500D01*
X227715694Y-48049500D01*
X225384306Y-48049500D01*
X225384298Y-48049500D01*
X225347432Y-48052401D01*
X225347426Y-48052402D01*
X225189607Y-48098253D01*
X225189604Y-48098255D01*
X225048138Y-48181917D01*
X225048130Y-48181923D01*
X224931923Y-48298130D01*
X224931917Y-48298138D01*
X224848255Y-48439604D01*
X224834557Y-48486751D01*
X224796949Y-48545636D01*
X224733476Y-48574841D01*
X224668029Y-48566715D01*
X224654328Y-48561040D01*
X224654322Y-48561038D01*
X224518995Y-48534120D01*
X224518993Y-48534120D01*
X224381007Y-48534120D01*
X224381005Y-48534120D01*
X224245677Y-48561038D01*
X224245667Y-48561041D01*
X224118195Y-48613841D01*
X224118182Y-48613848D01*
X224003458Y-48690505D01*
X224003454Y-48690508D01*
X223905888Y-48788074D01*
X223905885Y-48788078D01*
X223829228Y-48902802D01*
X223829221Y-48902815D01*
X223776421Y-49030287D01*
X223776418Y-49030297D01*
X223759080Y-49117460D01*
X223726694Y-49179371D01*
X223725145Y-49180949D01*
X223492912Y-49413182D01*
X223431592Y-49446666D01*
X223405233Y-49449500D01*
X222665041Y-49449500D01*
X222598002Y-49429815D01*
X222577360Y-49413181D01*
X222522670Y-49358491D01*
X222522669Y-49358490D01*
X222397139Y-49286016D01*
X222397140Y-49286016D01*
X222362136Y-49276637D01*
X222257129Y-49248500D01*
X222257126Y-49248500D01*
X217478387Y-49248500D01*
X217411348Y-49228815D01*
X217390706Y-49212181D01*
X216069854Y-47891329D01*
X216036369Y-47830006D01*
X216035946Y-47827978D01*
X216018580Y-47740672D01*
X215975229Y-47636012D01*
X215965778Y-47613195D01*
X215965771Y-47613182D01*
X215889114Y-47498458D01*
X215889111Y-47498454D01*
X215791545Y-47400888D01*
X215791541Y-47400885D01*
X215676817Y-47324228D01*
X215676804Y-47324221D01*
X215549332Y-47271421D01*
X215549322Y-47271418D01*
X215413995Y-47244500D01*
X215413993Y-47244500D01*
X215276007Y-47244500D01*
X215276005Y-47244500D01*
X215140677Y-47271418D01*
X215140667Y-47271421D01*
X215013195Y-47324221D01*
X215013182Y-47324228D01*
X214898458Y-47400885D01*
X214898454Y-47400888D01*
X214800888Y-47498454D01*
X214800885Y-47498458D01*
X214724228Y-47613182D01*
X214724221Y-47613195D01*
X214671421Y-47740667D01*
X214671418Y-47740677D01*
X214644500Y-47876004D01*
X214644500Y-47876007D01*
X214644500Y-48013993D01*
X214644500Y-48013995D01*
X214644499Y-48013995D01*
X209754652Y-48013995D01*
X209696545Y-47955888D01*
X209696541Y-47955885D01*
X209581817Y-47879228D01*
X209581804Y-47879221D01*
X209454332Y-47826421D01*
X209454322Y-47826418D01*
X209318995Y-47799500D01*
X209318993Y-47799500D01*
X209181007Y-47799500D01*
X209181005Y-47799500D01*
X209045677Y-47826418D01*
X209045667Y-47826421D01*
X208918195Y-47879221D01*
X208918182Y-47879228D01*
X208803458Y-47955885D01*
X208803454Y-47955888D01*
X208705888Y-48053454D01*
X208705885Y-48053458D01*
X208629228Y-48168182D01*
X208629221Y-48168195D01*
X208576421Y-48295667D01*
X208576418Y-48295677D01*
X208549500Y-48431004D01*
X208549500Y-48431007D01*
X208549500Y-48568993D01*
X208549500Y-48568995D01*
X208549499Y-48568995D01*
X206500500Y-48568995D01*
X206500500Y-43272368D01*
X206520185Y-43205329D01*
X206572989Y-43159574D01*
X206642147Y-43149630D01*
X206705703Y-43178655D01*
X206739059Y-43224913D01*
X206808039Y-43391444D01*
X206808040Y-43391446D01*
X206808042Y-43391451D01*
X206958584Y-43673094D01*
X206958601Y-43673122D01*
X207136012Y-43938638D01*
X207136029Y-43938661D01*
X207338638Y-44185540D01*
X207564459Y-44411361D01*
X207564464Y-44411365D01*
X207564465Y-44411366D01*
X207811344Y-44613975D01*
X207811351Y-44613980D01*
X207811361Y-44613987D01*
X208076877Y-44791398D01*
X208076882Y-44791401D01*
X208076894Y-44791409D01*
X208076903Y-44791413D01*
X208076905Y-44791415D01*
X208358548Y-44941957D01*
X208358550Y-44941957D01*
X208358556Y-44941961D01*
X208653619Y-45064180D01*
X208959240Y-45156889D01*
X209272477Y-45219196D01*
X209590313Y-45250500D01*
X209590316Y-45250500D01*
X209909684Y-45250500D01*
X209909687Y-45250500D01*
X210227523Y-45219196D01*
X210540760Y-45156889D01*
X210846381Y-45064180D01*
X211141444Y-44941961D01*
X211423106Y-44791409D01*
X211688656Y-44613975D01*
X211935535Y-44411366D01*
X212161366Y-44185535D01*
X212363975Y-43938656D01*
X212541409Y-43673106D01*
X212691961Y-43391444D01*
X212814180Y-43096381D01*
X212878223Y-42885258D01*
X226899500Y-42885258D01*
X226899500Y-43114741D01*
X226918849Y-43261703D01*
X226929452Y-43342238D01*
X226988842Y-43563887D01*
X227076650Y-43775876D01*
X227076656Y-43775888D01*
X227170619Y-43938638D01*
X227191392Y-43974617D01*
X227331081Y-44156661D01*
X227331089Y-44156670D01*
X227493330Y-44318911D01*
X227493338Y-44318918D01*
X227493339Y-44318919D01*
X227509092Y-44331007D01*
X227675382Y-44458607D01*
X227675385Y-44458608D01*
X227675388Y-44458611D01*
X227874112Y-44573344D01*
X227874117Y-44573346D01*
X227874123Y-44573349D01*
X227948899Y-44604322D01*
X228086113Y-44661158D01*
X228307762Y-44720548D01*
X228535266Y-44750500D01*
X228535273Y-44750500D01*
X228764727Y-44750500D01*
X228764734Y-44750500D01*
X228992238Y-44720548D01*
X229213887Y-44661158D01*
X229425888Y-44573344D01*
X229624612Y-44458611D01*
X229806661Y-44318919D01*
X229806665Y-44318914D01*
X229806670Y-44318911D01*
X229968911Y-44156670D01*
X229968914Y-44156665D01*
X229968919Y-44156661D01*
X230108611Y-43974612D01*
X230223344Y-43775888D01*
X230311158Y-43563887D01*
X230370548Y-43342238D01*
X230400500Y-43114734D01*
X230400500Y-42885266D01*
X230370548Y-42657762D01*
X230311158Y-42436113D01*
X230261190Y-42315480D01*
X230223349Y-42224123D01*
X230223346Y-42224117D01*
X230223344Y-42224112D01*
X230133787Y-42068995D01*
X230699499Y-42068995D01*
X230726418Y-42204322D01*
X230726421Y-42204332D01*
X230779221Y-42331804D01*
X230779228Y-42331817D01*
X230855885Y-42446541D01*
X230855888Y-42446545D01*
X230953457Y-42544114D01*
X231009875Y-42581811D01*
X231068189Y-42620775D01*
X231101121Y-42634415D01*
X231141349Y-42661295D01*
X231513181Y-43033127D01*
X231546666Y-43094450D01*
X231549500Y-43120808D01*
X231549500Y-44115287D01*
X231540062Y-44162734D01*
X231530619Y-44185535D01*
X231526418Y-44195678D01*
X231499500Y-44331004D01*
X231499500Y-44331007D01*
X231499500Y-44468993D01*
X231499500Y-44468995D01*
X231499499Y-44468995D01*
X231526418Y-44604322D01*
X231526421Y-44604332D01*
X231579221Y-44731804D01*
X231579228Y-44731817D01*
X231655885Y-44846541D01*
X231655888Y-44846545D01*
X231753454Y-44944111D01*
X231753458Y-44944114D01*
X231868182Y-45020771D01*
X231868195Y-45020778D01*
X231972976Y-45064179D01*
X231995672Y-45073580D01*
X231995676Y-45073580D01*
X231995677Y-45073581D01*
X232131004Y-45100500D01*
X232131007Y-45100500D01*
X232268995Y-45100500D01*
X232360041Y-45082389D01*
X232404328Y-45073580D01*
X232531811Y-45020775D01*
X232646542Y-44944114D01*
X232744114Y-44846542D01*
X232820775Y-44731811D01*
X232873580Y-44604328D01*
X232900500Y-44468993D01*
X232900500Y-44331007D01*
X232900500Y-44331004D01*
X232873581Y-44195678D01*
X232873580Y-44195672D01*
X232859937Y-44162734D01*
X232850500Y-44115287D01*
X232850500Y-42735931D01*
X232850499Y-42735925D01*
X232848625Y-42726504D01*
X234680000Y-42726504D01*
X234680000Y-43125000D01*
X235380000Y-43125000D01*
X235380000Y-43625000D01*
X234680000Y-43625000D01*
X234680000Y-44023495D01*
X234718427Y-44216681D01*
X234718430Y-44216693D01*
X234793807Y-44398671D01*
X234793814Y-44398684D01*
X234903248Y-44562462D01*
X234903251Y-44562466D01*
X235042533Y-44701748D01*
X235042537Y-44701751D01*
X235206315Y-44811185D01*
X235206328Y-44811192D01*
X235388308Y-44886569D01*
X235430000Y-44894862D01*
X235430000Y-44091988D01*
X235439940Y-44109205D01*
X235495795Y-44165060D01*
X235564204Y-44204556D01*
X235640504Y-44225000D01*
X235719496Y-44225000D01*
X235795796Y-44204556D01*
X235864205Y-44165060D01*
X235920060Y-44109205D01*
X235930000Y-44091988D01*
X235930000Y-44894862D01*
X235971690Y-44886569D01*
X235971692Y-44886569D01*
X236153671Y-44811192D01*
X236153684Y-44811185D01*
X236317462Y-44701751D01*
X236317466Y-44701748D01*
X236456748Y-44562466D01*
X236456751Y-44562462D01*
X236566185Y-44398684D01*
X236566192Y-44398671D01*
X236641569Y-44216693D01*
X236641572Y-44216681D01*
X236679999Y-44023495D01*
X236680000Y-44023492D01*
X236680000Y-43625000D01*
X235980000Y-43625000D01*
X235980000Y-43125000D01*
X236529763Y-43125000D01*
X236596802Y-43144685D01*
X236637149Y-43186999D01*
X236649485Y-43208365D01*
X236756635Y-43315515D01*
X236887865Y-43391281D01*
X237034234Y-43430500D01*
X237034236Y-43430500D01*
X237185764Y-43430500D01*
X237185766Y-43430500D01*
X237332135Y-43391281D01*
X237463365Y-43315515D01*
X237570515Y-43208365D01*
X237646281Y-43077135D01*
X237685500Y-42930766D01*
X237685500Y-42779234D01*
X237646281Y-42632865D01*
X237639298Y-42620771D01*
X237636129Y-42615281D01*
X237570515Y-42501635D01*
X237463365Y-42394485D01*
X237357520Y-42333375D01*
X237332614Y-42318995D01*
X239799499Y-42318995D01*
X239826418Y-42454322D01*
X239826421Y-42454332D01*
X239879221Y-42581804D01*
X239879228Y-42581817D01*
X239955885Y-42696541D01*
X239955888Y-42696545D01*
X240053454Y-42794111D01*
X240053458Y-42794114D01*
X240168182Y-42870771D01*
X240168195Y-42870778D01*
X240295667Y-42923578D01*
X240295672Y-42923580D01*
X240295676Y-42923580D01*
X240295677Y-42923581D01*
X240431004Y-42950500D01*
X240431007Y-42950500D01*
X240568995Y-42950500D01*
X240668212Y-42930764D01*
X240704328Y-42923580D01*
X240831811Y-42870775D01*
X240946542Y-42794114D01*
X240949899Y-42790757D01*
X240953838Y-42786819D01*
X240980765Y-42772115D01*
X241006584Y-42755523D01*
X241012784Y-42754631D01*
X241015161Y-42753334D01*
X241041519Y-42750500D01*
X241125500Y-42750500D01*
X241192539Y-42770185D01*
X241238294Y-42822989D01*
X241249500Y-42874500D01*
X241249500Y-43617007D01*
X241232888Y-43679006D01*
X241204672Y-43727877D01*
X241204672Y-43727878D01*
X241170564Y-43855172D01*
X241170564Y-45486955D01*
X241204672Y-45614252D01*
X241232886Y-45663117D01*
X241249500Y-45725119D01*
X241249500Y-46458481D01*
X241229815Y-46525520D01*
X241213181Y-46546162D01*
X241205888Y-46553454D01*
X241205885Y-46553458D01*
X241129228Y-46668182D01*
X241129221Y-46668195D01*
X241076421Y-46795667D01*
X241076418Y-46795677D01*
X241049500Y-46931004D01*
X241049500Y-46931007D01*
X241049500Y-47068993D01*
X241049500Y-47068995D01*
X241049499Y-47068995D01*
X241076418Y-47204322D01*
X241076421Y-47204332D01*
X241129221Y-47331804D01*
X241129228Y-47331817D01*
X241205885Y-47446541D01*
X241205888Y-47446545D01*
X241303454Y-47544111D01*
X241303458Y-47544114D01*
X241418182Y-47620771D01*
X241418195Y-47620778D01*
X241545667Y-47673578D01*
X241545672Y-47673580D01*
X241545676Y-47673580D01*
X241545677Y-47673581D01*
X241681004Y-47700500D01*
X241681007Y-47700500D01*
X241818995Y-47700500D01*
X241910041Y-47682389D01*
X241954328Y-47673580D01*
X242081811Y-47620775D01*
X242196542Y-47544114D01*
X242294114Y-47446542D01*
X242370775Y-47331811D01*
X242423580Y-47204328D01*
X242450500Y-47068993D01*
X242450500Y-46931007D01*
X242450500Y-46931004D01*
X242423581Y-46795677D01*
X242423580Y-46795676D01*
X242423580Y-46795672D01*
X242423578Y-46795667D01*
X242370778Y-46668195D01*
X242370771Y-46668182D01*
X242294114Y-46553458D01*
X242294111Y-46553454D01*
X242286819Y-46546162D01*
X242253334Y-46484839D01*
X242250500Y-46458481D01*
X242250500Y-45434110D01*
X242250500Y-45434108D01*
X242216392Y-45306814D01*
X242188176Y-45257942D01*
X242171564Y-45195943D01*
X242171564Y-44146184D01*
X242188179Y-44084180D01*
X242197414Y-44068186D01*
X242202718Y-44058997D01*
X242216392Y-44035314D01*
X242250500Y-43908020D01*
X242250500Y-43328742D01*
X242270185Y-43261703D01*
X242322989Y-43215948D01*
X242392147Y-43206004D01*
X242455703Y-43235029D01*
X242462181Y-43241061D01*
X242536635Y-43315515D01*
X242667865Y-43391281D01*
X242814234Y-43430500D01*
X242814236Y-43430500D01*
X242965764Y-43430500D01*
X242965766Y-43430500D01*
X243112135Y-43391281D01*
X243243365Y-43315515D01*
X243350515Y-43208365D01*
X243362850Y-43186999D01*
X243413417Y-43138784D01*
X243470237Y-43125000D01*
X244020000Y-43125000D01*
X244020000Y-43625000D01*
X243320000Y-43625000D01*
X243320000Y-44023495D01*
X243358427Y-44216681D01*
X243358430Y-44216693D01*
X243433807Y-44398671D01*
X243433814Y-44398684D01*
X243543248Y-44562462D01*
X243543251Y-44562466D01*
X243682533Y-44701748D01*
X243682537Y-44701751D01*
X243846315Y-44811185D01*
X243846328Y-44811192D01*
X244028308Y-44886569D01*
X244070000Y-44894862D01*
X244070000Y-44091988D01*
X244079940Y-44109205D01*
X244135795Y-44165060D01*
X244204204Y-44204556D01*
X244280504Y-44225000D01*
X244359496Y-44225000D01*
X244435796Y-44204556D01*
X244504205Y-44165060D01*
X244560060Y-44109205D01*
X244570000Y-44091988D01*
X244570000Y-44894862D01*
X244611690Y-44886569D01*
X244611692Y-44886569D01*
X244793671Y-44811192D01*
X244793684Y-44811185D01*
X244957462Y-44701751D01*
X244957466Y-44701748D01*
X245096748Y-44562466D01*
X245096751Y-44562462D01*
X245206185Y-44398684D01*
X245206192Y-44398671D01*
X245281569Y-44216693D01*
X245281572Y-44216681D01*
X245319999Y-44023495D01*
X245320000Y-44023492D01*
X245320000Y-43625000D01*
X244620000Y-43625000D01*
X244620000Y-43125000D01*
X245320000Y-43125000D01*
X245320000Y-42726508D01*
X245319999Y-42726504D01*
X245281572Y-42533318D01*
X245281569Y-42533306D01*
X245206192Y-42351328D01*
X245206185Y-42351315D01*
X245096751Y-42187537D01*
X245096748Y-42187533D01*
X244957466Y-42048251D01*
X244957462Y-42048248D01*
X244793684Y-41938814D01*
X244793671Y-41938807D01*
X244611691Y-41863429D01*
X244611683Y-41863427D01*
X244570000Y-41855135D01*
X244570000Y-42658011D01*
X244560060Y-42640795D01*
X244504205Y-42584940D01*
X244435796Y-42545444D01*
X244359496Y-42525000D01*
X244280504Y-42525000D01*
X244204204Y-42545444D01*
X244135795Y-42584940D01*
X244079940Y-42640795D01*
X244070000Y-42658011D01*
X244070000Y-41855136D01*
X244069999Y-41855135D01*
X244028316Y-41863427D01*
X244028308Y-41863429D01*
X243846328Y-41938807D01*
X243846315Y-41938814D01*
X243682537Y-42048248D01*
X243682533Y-42048251D01*
X243543248Y-42187536D01*
X243433811Y-42351321D01*
X243430949Y-42356676D01*
X243381982Y-42406516D01*
X243313843Y-42421971D01*
X243248165Y-42398134D01*
X243246112Y-42396592D01*
X243243371Y-42394489D01*
X243243366Y-42394486D01*
X243243365Y-42394485D01*
X243137520Y-42333375D01*
X243112136Y-42318719D01*
X243038950Y-42299109D01*
X242965766Y-42279500D01*
X242814234Y-42279500D01*
X242667863Y-42318719D01*
X242536635Y-42394485D01*
X242536632Y-42394487D01*
X242462181Y-42468939D01*
X242400858Y-42502424D01*
X242331166Y-42497440D01*
X242275233Y-42455568D01*
X242250816Y-42390104D01*
X242250500Y-42381258D01*
X242250500Y-42333375D01*
X242250500Y-42333373D01*
X242216392Y-42206079D01*
X242215383Y-42204332D01*
X242189605Y-42159683D01*
X242150500Y-42091951D01*
X242057314Y-41998765D01*
X241908049Y-41849500D01*
X241850985Y-41816554D01*
X241793922Y-41783608D01*
X241730274Y-41766554D01*
X241666627Y-41749500D01*
X241666626Y-41749500D01*
X241041519Y-41749500D01*
X240974480Y-41729815D01*
X240953838Y-41713181D01*
X240946545Y-41705888D01*
X240946541Y-41705885D01*
X240831817Y-41629228D01*
X240831804Y-41629221D01*
X240704332Y-41576421D01*
X240704322Y-41576418D01*
X240568995Y-41549500D01*
X240568993Y-41549500D01*
X240431007Y-41549500D01*
X240431005Y-41549500D01*
X240295677Y-41576418D01*
X240295667Y-41576421D01*
X240168195Y-41629221D01*
X240168182Y-41629228D01*
X240053458Y-41705885D01*
X240053454Y-41705888D01*
X239955888Y-41803454D01*
X239955885Y-41803458D01*
X239879228Y-41918182D01*
X239879221Y-41918195D01*
X239826421Y-42045667D01*
X239826418Y-42045677D01*
X239799500Y-42181004D01*
X239799500Y-42181007D01*
X239799500Y-42318993D01*
X239799500Y-42318995D01*
X239799499Y-42318995D01*
X237332614Y-42318995D01*
X237332136Y-42318719D01*
X237296405Y-42309145D01*
X237185766Y-42279500D01*
X237034234Y-42279500D01*
X236887863Y-42318719D01*
X236756626Y-42394490D01*
X236753882Y-42396596D01*
X236751152Y-42397651D01*
X236749597Y-42398549D01*
X236749456Y-42398306D01*
X236688710Y-42421785D01*
X236620267Y-42407741D01*
X236570281Y-42358922D01*
X236569042Y-42356660D01*
X236566187Y-42351318D01*
X236456751Y-42187537D01*
X236456748Y-42187533D01*
X236317466Y-42048251D01*
X236317462Y-42048248D01*
X236153684Y-41938814D01*
X236153671Y-41938807D01*
X235971691Y-41863429D01*
X235971683Y-41863427D01*
X235930000Y-41855135D01*
X235930000Y-42658011D01*
X235920060Y-42640795D01*
X235864205Y-42584940D01*
X235795796Y-42545444D01*
X235719496Y-42525000D01*
X235640504Y-42525000D01*
X235564204Y-42545444D01*
X235495795Y-42584940D01*
X235439940Y-42640795D01*
X235430000Y-42658011D01*
X235430000Y-41855136D01*
X235429999Y-41855135D01*
X235388316Y-41863427D01*
X235388308Y-41863429D01*
X235206328Y-41938807D01*
X235206315Y-41938814D01*
X235042537Y-42048248D01*
X235042533Y-42048251D01*
X234903251Y-42187533D01*
X234903248Y-42187537D01*
X234793814Y-42351315D01*
X234793807Y-42351328D01*
X234718430Y-42533306D01*
X234718427Y-42533318D01*
X234680000Y-42726504D01*
X232848625Y-42726504D01*
X232825502Y-42610261D01*
X232825501Y-42610260D01*
X232825501Y-42610256D01*
X232776465Y-42491873D01*
X232766876Y-42477522D01*
X232756830Y-42462486D01*
X232705275Y-42385328D01*
X232705272Y-42385325D01*
X232061295Y-41741349D01*
X232034415Y-41701121D01*
X232020775Y-41668189D01*
X231994740Y-41629225D01*
X231944114Y-41553457D01*
X231846545Y-41455888D01*
X231846541Y-41455885D01*
X231731817Y-41379228D01*
X231731804Y-41379221D01*
X231604332Y-41326421D01*
X231604322Y-41326418D01*
X231468995Y-41299500D01*
X231468993Y-41299500D01*
X231331007Y-41299500D01*
X231331005Y-41299500D01*
X231195677Y-41326418D01*
X231195667Y-41326421D01*
X231068195Y-41379221D01*
X231068182Y-41379228D01*
X230953458Y-41455885D01*
X230953454Y-41455888D01*
X230855888Y-41553454D01*
X230855885Y-41553458D01*
X230779228Y-41668182D01*
X230779221Y-41668195D01*
X230726421Y-41795667D01*
X230726418Y-41795677D01*
X230699500Y-41931004D01*
X230699500Y-41931007D01*
X230699500Y-42068993D01*
X230699500Y-42068995D01*
X230699499Y-42068995D01*
X230133787Y-42068995D01*
X230108611Y-42025388D01*
X229968919Y-41843339D01*
X229968918Y-41843338D01*
X229968911Y-41843330D01*
X229806670Y-41681089D01*
X229806661Y-41681081D01*
X229624617Y-41541392D01*
X229425890Y-41426657D01*
X229425876Y-41426650D01*
X229213887Y-41338842D01*
X228992238Y-41279452D01*
X228954215Y-41274446D01*
X228764741Y-41249500D01*
X228764734Y-41249500D01*
X228535266Y-41249500D01*
X228535258Y-41249500D01*
X228318715Y-41278009D01*
X228307762Y-41279452D01*
X228232941Y-41299500D01*
X228086112Y-41338842D01*
X227874123Y-41426650D01*
X227874109Y-41426657D01*
X227675382Y-41541392D01*
X227493338Y-41681081D01*
X227331081Y-41843338D01*
X227191392Y-42025382D01*
X227076657Y-42224109D01*
X227076650Y-42224123D01*
X226988842Y-42436112D01*
X226929453Y-42657759D01*
X226929451Y-42657770D01*
X226899500Y-42885258D01*
X212878223Y-42885258D01*
X212906889Y-42790760D01*
X212969196Y-42477523D01*
X213000500Y-42159687D01*
X213000500Y-41840313D01*
X212969196Y-41522477D01*
X212906889Y-41209240D01*
X212814180Y-40903619D01*
X212691961Y-40608556D01*
X212554695Y-40351751D01*
X212541415Y-40326905D01*
X212541413Y-40326903D01*
X212541409Y-40326894D01*
X212541398Y-40326877D01*
X212363987Y-40061361D01*
X212363980Y-40061351D01*
X212363975Y-40061344D01*
X212161366Y-39814465D01*
X212161365Y-39814464D01*
X212161361Y-39814459D01*
X211935540Y-39588638D01*
X211790359Y-39469491D01*
X211769431Y-39452316D01*
X211688656Y-39386025D01*
X211688651Y-39386022D01*
X211688638Y-39386012D01*
X211423122Y-39208601D01*
X211423094Y-39208584D01*
X211141451Y-39058042D01*
X211141446Y-39058040D01*
X210846382Y-38935820D01*
X210540754Y-38843109D01*
X210227521Y-38780803D01*
X210227522Y-38780803D01*
X209988141Y-38757227D01*
X209909687Y-38749500D01*
X209590313Y-38749500D01*
X209517822Y-38756639D01*
X209272477Y-38780803D01*
X208959245Y-38843109D01*
X208653617Y-38935820D01*
X208358553Y-39058040D01*
X208358548Y-39058042D01*
X208076905Y-39208584D01*
X208076877Y-39208601D01*
X207811361Y-39386012D01*
X207811338Y-39386029D01*
X207564459Y-39588638D01*
X207338638Y-39814459D01*
X207136029Y-40061338D01*
X207136012Y-40061361D01*
X206958601Y-40326877D01*
X206958584Y-40326905D01*
X206808042Y-40608548D01*
X206808040Y-40608553D01*
X206739061Y-40775084D01*
X206695220Y-40829487D01*
X206628926Y-40851552D01*
X206561226Y-40834273D01*
X206513616Y-40783135D01*
X206500500Y-40727631D01*
X206500500Y-40253749D01*
X206500726Y-40246262D01*
X206502770Y-40212466D01*
X206516448Y-39986335D01*
X206518253Y-39971475D01*
X206564515Y-39719026D01*
X206568095Y-39704505D01*
X206644451Y-39459471D01*
X206649753Y-39445489D01*
X206755095Y-39211430D01*
X206762040Y-39198197D01*
X206894826Y-38978542D01*
X206903313Y-38966246D01*
X207061608Y-38764198D01*
X207071523Y-38753007D01*
X207253007Y-38571523D01*
X207264198Y-38561608D01*
X207466246Y-38403313D01*
X207478542Y-38394826D01*
X207698197Y-38262040D01*
X207711430Y-38255095D01*
X207945489Y-38149753D01*
X207959471Y-38144451D01*
X208204505Y-38068095D01*
X208219026Y-38064515D01*
X208471476Y-38018252D01*
X208486335Y-38016448D01*
X208746264Y-38000726D01*
X208753751Y-38000500D01*
X208815892Y-38000500D01*
X234762826Y-38000500D01*
X234829865Y-38020185D01*
G37*
%TD.AperFunction*%
%TA.AperFunction,Conductor*%
G36*
X227068554Y-64924037D02*
G01*
X227094875Y-64944110D01*
X227313083Y-65162318D01*
X227346568Y-65223641D01*
X227341584Y-65293333D01*
X227313083Y-65337680D01*
X227050734Y-65600028D01*
X226989411Y-65633513D01*
X226919719Y-65628529D01*
X226863786Y-65586657D01*
X226839369Y-65521193D01*
X226848491Y-65464897D01*
X226873580Y-65404328D01*
X226895193Y-65295672D01*
X226900500Y-65268995D01*
X226900500Y-65131004D01*
X226885577Y-65055983D01*
X226891804Y-64986391D01*
X226934667Y-64931214D01*
X227000557Y-64907969D01*
X227068554Y-64924037D01*
G37*
%TD.AperFunction*%
%TD*%
M02*
