M48
; DRILL file {KiCad 9.0.6-9.0.6~ubuntu22.04.1} date 2026-06-23T21:31:26-0400
; FORMAT={-:-/ absolute / inch / decimal}
; #@! TF.CreationDate,2026-06-23T21:31:26-04:00
; #@! TF.GenerationSoftware,Kicad,Pcbnew,9.0.6-9.0.6~ubuntu22.04.1
; #@! TF.FileFunction,Plated,1,2,PTH
FMAT,2
INCH
; #@! TA.AperFunction,Plated,PTH,ComponentDrill
T1C0.0079
; #@! TA.AperFunction,Plated,PTH,ViaDrill
T2C0.0118
; #@! TA.AperFunction,Plated,PTH,ComponentDrill
T3C0.0118
; #@! TA.AperFunction,Plated,PTH,ComponentDrill
T4C0.0236
; #@! TA.AperFunction,Plated,PTH,ComponentDrill
T5C0.0551
; #@! TA.AperFunction,Plated,PTH,ComponentDrill
T6C0.0709
; #@! TA.AperFunction,Plated,PTH,ComponentDrill
T7C0.1260
%
G90
G05
T1
X9.0098Y-3.2614
X9.0098Y-3.3165
X9.0374Y-3.2339
X9.0374Y-3.289
X9.0374Y-3.3441
X9.065Y-3.2614
X9.065Y-3.3165
X9.0925Y-3.2339
X9.0925Y-3.289
X9.0925Y-3.3441
X9.1201Y-3.2614
X9.1201Y-3.3165
T2
X8.1437Y-2.7795
X8.1516Y-2.6063
X8.1575Y-2.4173
X8.1811Y-1.937
X8.1811Y-1.9921
X8.1969Y-2.4094
X8.2205Y-2.6063
X8.2382Y-1.9094
X8.2677Y-2.2283
X8.2776Y-2.9331
X8.2913Y-1.9606
X8.2992Y-2.1024
X8.2992Y-2.1339
X8.3071Y-2.9724
X8.3268Y-2.7795
X8.3622Y-2.9528
X8.4154Y-3.5039
X8.4252Y-1.8602
X8.4252Y-3.6319
X8.4488Y-2.1102
X8.4488Y-2.1496
X8.4567Y-3.2756
X8.4781Y-1.8876
X8.4843Y-3.6319
X8.4941Y-1.5256
X8.4941Y-1.5748
X8.5118Y-3.2756
X8.5138Y-2.5394
X8.5276Y-2.3386
X8.5591Y-2.3386
X8.5596Y-1.9862
X8.5827Y-2.4803
X8.5925Y-3.4939
X8.5925Y-3.4154
X8.5925Y-3.4547
X8.6063Y-1.7402
X8.6086Y-2.8244
X8.622Y-2.4724
X8.622Y-2.8661
X8.6417Y-1.5748
X8.6457Y-2.5827
X8.6772Y-2.7165
X8.6811Y-2.7854
X8.6984Y-2.439
X8.7087Y-2.5906
X8.726Y-3.0468
X8.7262Y-3.0077
X8.7368Y-1.9862
X8.7402Y-2.2441
X8.7402Y-3.4154
X8.7402Y-3.4547
X8.7402Y-3.4941
X8.748Y-2.6614
X8.75Y-2.7854
X8.7582Y-3.1709
X8.76Y-3.0907
X8.7756Y-2.5984
X8.7795Y-1.7402
X8.7795Y-2.4488
X8.8366Y-1.9384
X8.8386Y-1.5748
X8.8583Y-2.372
X8.8681Y-1.6535
X8.9055Y-2.5669
X8.9134Y-3.1496
X8.9143Y-2.5031
X8.937Y-1.5748
X8.937Y-3.6122
X8.939Y-2.6969
X8.9449Y-2.5665
X8.9469Y-2.372
X8.9685Y-2.9764
X8.9764Y-2.7756
X8.9862Y-2.5689
X9.0157Y-2.9764
X9.0157Y-3.6122
X9.0256Y-2.372
X9.0315Y-3.1496
X9.0846Y-1.8406
X9.0945Y-2.3819
X9.0945Y-3.6122
X9.1043Y-1.5551
X9.1102Y-1.6535
X9.126Y-2.8346
X9.1417Y-1.748
X9.1437Y-2.3622
X9.1437Y-2.4016
X9.1496Y-1.5512
X9.1575Y-3.1496
X9.1614Y-2.815
X9.1831Y-1.9685
X9.1831Y-2.0276
X9.2126Y-2.5787
X9.217Y-2.7761
X9.252Y-3.0217
X9.2717Y-3.1398
X9.2815Y-3.0906
X9.2835Y-2.2677
X9.3228Y-2.8976
X9.3307Y-2.372
X9.3858Y-2.6929
X9.3858Y-2.7559
X9.3898Y-2.372
X9.4016Y-1.5512
X9.4173Y-3.1102
X9.4173Y-3.2126
X9.4205Y-3.4929
X9.4646Y-1.8976
X9.4646Y-1.9449
X9.4669Y-2.9823
X9.4685Y-1.6634
X9.4685Y-2.6181
X9.4783Y-2.8642
X9.5039Y-1.5512
X9.5177Y-1.8504
X9.5276Y-2.7362
X9.5469Y-3.592
X9.5669Y-3.1969
X9.5748Y-3.0709
X9.5827Y-2.811
X9.6012Y-2.9016
X9.6299Y-2.748
X9.6378Y-2.9606
X9.6457Y-3.1693
X9.6929Y-3.2205
X9.6949Y-1.8406
X9.7008Y-2.9291
X9.7244Y-3.1969
X9.7323Y-2.622
X9.7343Y-1.8406
X9.7441Y-1.5748
X9.748Y-3.0691
T3
X8.54Y-2.1122
X8.54Y-2.1634
X8.5911Y-2.1122
X8.5911Y-2.1634
X8.6423Y-2.1122
X8.6423Y-2.1634
X8.6935Y-2.1122
X8.6935Y-2.1634
T5
X8.2087Y-3.0807
X8.2087Y-3.2382
X8.3661Y-3.0807
X8.3661Y-3.2382
X9.6614Y-2.4724
T6
X8.9193Y-1.9803
X8.9193Y-2.1969
X9.0846Y-1.9803
X9.0846Y-2.1969
T7
X8.2579Y-1.6535
X8.2579Y-3.4941
X9.6555Y-1.9783
X9.6555Y-3.4449
T4
G00X9.2787Y-1.5581
M15
G01X9.2787Y-1.5266
M16
G05
G00X9.2787Y-1.7293
M15
G01X9.2787Y-1.686
M16
G05
G00X9.6189Y-1.5581
M15
G01X9.6189Y-1.5266
M16
G05
G00X9.6189Y-1.7293
M15
G01X9.6189Y-1.686
M16
G05
M30
